<svg version="1.1" xmlns="http://www.w3.org/2000/svg" viewBox="0 0 2469.0043637453523 1360.779007334975" width="2469.0043637453523" height="1360.779007334975">
  <!-- svg-source:excalidraw -->
  
  <defs>
    <style class="style-fonts">
      @font-face {
        font-family: "Virgil";
        src: url("https://excalidraw.com/Virgil.woff2");
      }
      @font-face {
        font-family: "Cascadia";
        src: url("https://excalidraw.com/Cascadia.woff2");
      }
    </style>
  </defs>
  <rect x="0" y="0" width="2469.0043637453523" height="1360.779007334975" fill="#ffffff"></rect><g stroke-linecap="round" transform="translate(1002.118815847409 201.88156076924415) rotate(0 75 30)"><path d="M0.88 0.89 C39.23 0.25, 77.66 -1.3, 149.9 0.9 M0.87 -0.74 C36.94 1.43, 72.97 -0.5, 150.31 -0.44 M149.67 -0.69 C148.57 22.92, 151.27 45.72, 149.7 61.62 M149.69 0.91 C150.23 19.89, 149.13 40.7, 149.07 59.81 M149.09 60.04 C98.64 62.17, 50.24 59.56, 0.99 60.06 M150.35 59.07 C108.15 59.38, 67.89 59.56, -0.85 59.77 M0.3 60.58 C-1.02 45.07, 0.54 26.63, 0.33 -0.38 M0.85 59.32 C-1.32 43.33, -0.84 27.94, 0.56 -0.17" stroke="#000000" stroke-width="1" fill="none"></path></g><g transform="translate(1006.618815847409 219.38156076924415) rotate(0 70 12.5)"><text x="70" y="18" font-family="Virgil, Segoe UI Emoji" font-size="20px" fill="#000000" text-anchor="middle" style="white-space: pre;" direction="ltr">Tipo_tubagem</text></g><g stroke-linecap="round" transform="translate(752.5188097438934 117.2815241481504) rotate(0 98 30)"><path d="M139.4 2.77 C152.4 4.12, 165.83 7.62, 174.89 10.95 C183.95 14.29, 190.78 18.71, 193.77 22.8 C196.76 26.9, 196.03 31.33, 192.85 35.52 C189.67 39.71, 183.45 44.31, 174.72 47.94 C165.98 51.57, 152.98 55.27, 140.44 57.29 C127.91 59.31, 113.73 60.18, 99.53 60.06 C85.34 59.93, 68.23 58.33, 55.27 56.55 C42.32 54.78, 30.5 52.54, 21.78 49.4 C13.07 46.26, 6.29 42.1, 3 37.71 C-0.29 33.32, -0.98 27.46, 2.04 23.07 C5.05 18.69, 12.41 14.79, 21.11 11.4 C29.82 8, 41.66 4.44, 54.25 2.7 C66.84 0.97, 81.28 0.92, 96.66 0.96 C112.05 1.01, 137.55 2.1, 146.55 2.98 C155.56 3.86, 151.45 5.6, 150.68 6.24 M94.43 -0.47 C107.95 -1.03, 125.31 2.37, 138.38 4.03 C151.45 5.69, 163.85 6.54, 172.86 9.49 C181.87 12.44, 188.94 17.4, 192.45 21.73 C195.96 26.06, 196.42 31.12, 193.92 35.46 C191.42 39.81, 185.75 44.24, 177.46 47.79 C169.16 51.35, 156.77 54.76, 144.18 56.78 C131.59 58.8, 116.23 59.63, 101.94 59.93 C87.65 60.23, 71.58 60.23, 58.43 58.59 C45.28 56.95, 32.34 53.57, 23.04 50.09 C13.74 46.6, 6.36 41.81, 2.62 37.67 C-1.12 33.52, -2.24 29.52, 0.6 25.21 C3.44 20.9, 10.9 15.29, 19.67 11.79 C28.43 8.28, 40.56 6.24, 53.18 4.17 C65.8 2.11, 88.51 -0.14, 95.38 -0.59 C102.26 -1.05, 94.2 0.75, 94.43 1.44" stroke="#000000" stroke-width="1" fill="none"></path></g><g transform="translate(766.0188097438934 134.7815241481504) rotate(0 84.5 12.5)"><text x="84.5" y="18" font-family="Virgil, Segoe UI Emoji" font-size="20px" fill="#000000" text-anchor="middle" style="white-space: pre;" direction="ltr">ID_Tp_Tub_-pk</text></g><g stroke-linecap="round" transform="translate(737.1187853298309 218.08155771748633) rotate(0 98 30)"><path d="M92.88 -0.61 C106.04 -1.35, 122.02 -0.08, 135.05 1.54 C148.08 3.15, 161.55 5.62, 171.04 9.08 C180.54 12.54, 188.06 17.91, 192.03 22.31 C195.99 26.72, 197.32 31.22, 194.83 35.53 C192.34 39.84, 185.29 44.75, 177.1 48.18 C168.91 51.6, 158.16 54.01, 145.7 56.08 C133.24 58.15, 116.52 60.33, 102.36 60.6 C88.19 60.86, 73.61 59.32, 60.71 57.64 C47.81 55.97, 34.33 53.72, 24.96 50.56 C15.6 47.4, 8.53 42.82, 4.52 38.68 C0.51 34.53, -1.21 30.16, 0.91 25.71 C3.03 21.27, 8.98 15.51, 17.24 12 C25.5 8.49, 37.54 6.7, 50.48 4.65 C63.43 2.6, 87.13 0.33, 94.91 -0.27 C102.69 -0.88, 97.09 0.34, 97.17 1.02 M142.38 4.03 C154.87 5.56, 165.34 8.28, 174.03 11.69 C182.73 15.1, 191.38 20.55, 194.56 24.51 C197.75 28.46, 196.66 31.13, 193.14 35.4 C189.63 39.68, 182.37 46.33, 173.46 50.17 C164.56 54.01, 152.47 57.03, 139.72 58.44 C126.96 59.85, 111.28 59.08, 96.92 58.64 C82.56 58.19, 66.21 57.2, 53.55 55.76 C40.89 54.31, 29.27 53.11, 20.96 49.97 C12.65 46.84, 6.82 41.44, 3.7 36.95 C0.58 32.46, -0.86 27.49, 2.23 23.03 C5.32 18.56, 13.49 13.68, 22.23 10.16 C30.97 6.65, 41.94 3.54, 54.64 1.93 C67.34 0.31, 83.88 0.17, 98.44 0.46 C113.01 0.75, 135.08 3.13, 142.03 3.66 C148.97 4.19, 141.05 3.27, 140.14 3.63" stroke="#000000" stroke-width="1" fill="none"></path></g><g transform="translate(763.6187853298309 235.58155771748633) rotate(0 71.5 12.5)"><text x="71.5" y="18" font-family="Virgil, Segoe UI Emoji" font-size="20px" fill="#000000" text-anchor="middle" style="white-space: pre;" direction="ltr">nome_Tp_Tub</text></g><g stroke-linecap="round"><g transform="translate(936.5187944851043 163.68159433858008) rotate(0 42.36608124680353 18.8833716595266)"><path d="M1.11 0.39 C15.19 6.32, 70.49 30.79, 84.49 36.73 M0.24 -0.46 C14.13 6.18, 69.33 31.99, 83.38 38.22" stroke="#000000" stroke-width="1" fill="none"></path></g></g><g stroke-linecap="round"><g transform="translate(933.7188066921356 246.88156076924415) rotate(0 32.87326731355395 -5.91592603996396)"><path d="M-0.15 0.8 C11.19 -1.42, 56.54 -10.65, 67.44 -12.63 M-1.69 0.18 C9.64 -1.96, 55.5 -9.24, 67.04 -11.43" stroke="#000000" stroke-width="1" fill="none"></path></g></g><g stroke-linecap="round" transform="translate(1355.157121706778 40.84510737721473) rotate(0 98 30)"><path d="M57.45 3.75 C69.21 1.55, 85.44 -0.2, 99.44 -0.25 C113.45 -0.31, 128.93 1.59, 141.47 3.4 C154 5.21, 166.05 7.25, 174.67 10.59 C183.28 13.94, 190 19, 193.15 23.5 C196.3 28, 196.74 33.37, 193.6 37.6 C190.46 41.83, 183.33 45.65, 174.31 48.88 C165.3 52.11, 152.43 55.07, 139.53 57 C126.63 58.93, 111.08 60.35, 96.93 60.46 C82.78 60.57, 67.49 59.79, 54.65 57.64 C41.8 55.49, 28.72 51.08, 19.87 47.55 C11.01 44.02, 4.29 40.68, 1.51 36.45 C-1.27 32.21, -0.36 26.51, 3.19 22.14 C6.75 17.78, 13.46 13.61, 22.84 10.25 C32.22 6.89, 52.78 3.23, 59.46 1.99 C66.15 0.76, 62.47 2.17, 62.97 2.84 M114.87 -0.25 C128.66 0.03, 145.19 2.73, 156.97 5.65 C168.76 8.56, 179.22 13.62, 185.58 17.24 C191.94 20.86, 194.56 23.23, 195.13 27.37 C195.71 31.51, 194.36 38.04, 189.03 42.08 C183.7 46.11, 173.89 48.88, 163.15 51.59 C152.4 54.3, 138.49 56.96, 124.55 58.32 C110.6 59.67, 93.75 60.27, 79.49 59.73 C65.22 59.19, 50.2 57.88, 38.93 55.07 C27.67 52.25, 18.57 47.01, 11.9 42.85 C5.23 38.7, -0.25 34.35, -1.09 30.12 C-1.92 25.9, 0.91 21.17, 6.89 17.52 C12.86 13.88, 23.94 10.83, 34.77 8.25 C45.59 5.67, 58.49 3.22, 71.82 2.03 C85.15 0.85, 107.58 1.49, 114.73 1.14 C121.88 0.79, 114.71 -0.29, 114.74 -0.08" stroke="#000000" stroke-width="1" fill="none"></path></g><g transform="translate(1374.157121706778 58.34510737721473) rotate(0 79 12.5)"><text x="79" y="18" font-family="Virgil, Segoe UI Emoji" font-size="20px" fill="#000000" text-anchor="middle" style="white-space: pre;" direction="ltr">ID_Tp_Reg_pk</text></g><g stroke-linecap="round" transform="translate(1402.469519448628 192.85692352300416) rotate(0 75 30)"><path d="M1.22 1.91 C53.6 -0.01, 103.18 1.58, 148.94 0.88 M-0.49 0.54 C34.48 0.59, 70.22 -0.03, 150.79 -0.84 M150.8 -1.89 C151.32 14.62, 149.17 29.72, 151.47 60.61 M150.5 -0.31 C149.1 12.6, 149.74 27.47, 150.85 59.16 M148.74 59.38 C90.93 56.73, 34.19 58.02, -1.68 61.39 M150.48 60.77 C92.99 59.4, 33.84 59.99, -0.41 60.73 M0.85 58.76 C1.03 49.14, -0.31 35.72, -1.38 0.24 M-0.33 59.58 C0.24 41.24, -0.35 22.19, 0.3 0.44" stroke="#000000" stroke-width="1" fill="none"></path></g><g transform="translate(1422.969519448628 210.35692352300416) rotate(0 54 12.5)"><text x="54" y="18" font-family="Virgil, Segoe UI Emoji" font-size="20px" fill="#000000" text-anchor="middle" style="white-space: pre;" direction="ltr">Tipo_Rega</text></g><g stroke-linecap="round" transform="translate(1542.1676204967416 10) rotate(0 98.00000000000006 30)"><path d="M115.61 1.3 C129.09 1.29, 143.66 2.51, 155.05 4.85 C166.43 7.2, 177.16 11.27, 183.91 15.37 C190.65 19.47, 194.78 24.97, 195.52 29.47 C196.25 33.97, 193.73 38.5, 188.32 42.39 C182.91 46.28, 173.92 49.93, 163.03 52.81 C152.14 55.7, 136.84 58.67, 122.97 59.7 C109.1 60.73, 93.53 59.91, 79.81 59 C66.09 58.09, 52.1 56.61, 40.66 54.25 C29.21 51.89, 17.83 48.85, 11.11 44.85 C4.4 40.85, 0.75 34.76, 0.35 30.24 C-0.05 25.72, 3.11 21.71, 8.69 17.75 C14.27 13.78, 23.3 9.25, 33.84 6.44 C44.37 3.64, 56.75 1.68, 71.89 0.91 C87.02 0.15, 114.31 1.41, 124.64 1.86 C134.98 2.31, 134.11 3.11, 133.9 3.61 M66.49 0.15 C78.9 -1.59, 97.07 -2.03, 111.15 -1.16 C125.23 -0.28, 138.94 2.71, 150.96 5.39 C162.98 8.07, 175.63 11.53, 183.25 14.94 C190.87 18.36, 195.42 21.5, 196.68 25.87 C197.95 30.23, 196.08 36.8, 190.86 41.13 C185.64 45.46, 175.68 48.74, 165.37 51.85 C155.06 54.96, 142.52 58.29, 129.01 59.81 C115.5 61.34, 98.39 61.66, 84.33 60.99 C70.26 60.31, 56.22 58.59, 44.61 55.78 C33 52.98, 21.83 48.05, 14.68 44.16 C7.54 40.27, 3.25 36.65, 1.74 32.47 C0.23 28.29, 0.78 23.34, 5.62 19.11 C10.47 14.87, 20.74 10, 30.8 7.04 C40.87 4.08, 60 2.08, 66.01 1.33 C72.02 0.58, 66.27 2.12, 66.87 2.55" stroke="#000000" stroke-width="1" fill="none"></path></g><g transform="translate(1559.6676204967416 27.5) rotate(0 80.50000000000006 12.5)"><text x="80.5" y="18" font-family="Virgil, Segoe UI Emoji" font-size="20px" fill="#000000" text-anchor="middle" style="white-space: pre;" direction="ltr">ID_Tp_Tub_fk</text></g><g stroke-linecap="round" transform="translate(1158.0445585470234 22.860070235929186) rotate(0 98 30)"><path d="M88.26 0.05 C101.61 -1.08, 118.42 -0.55, 131.83 0.88 C145.24 2.3, 158.89 5.49, 168.72 8.61 C178.55 11.73, 186.23 15.29, 190.81 19.59 C195.4 23.89, 197.95 29.83, 196.24 34.41 C194.52 39, 188.38 43.45, 180.55 47.1 C172.71 50.74, 161.42 54.06, 149.24 56.27 C137.06 58.49, 121.49 59.97, 107.47 60.38 C93.46 60.78, 78.47 60.39, 65.17 58.7 C51.88 57.01, 37.81 53.3, 27.7 50.25 C17.59 47.19, 9.13 44.21, 4.51 40.34 C-0.11 36.48, -1.74 31.55, -0.03 27.08 C1.69 22.61, 7.11 17.38, 14.82 13.51 C22.54 9.64, 31.72 6.18, 46.27 3.85 C60.82 1.53, 90.36 -0.09, 102.12 -0.46 C113.89 -0.83, 116.66 1.08, 116.85 1.63 M119.93 0.02 C133.75 0.48, 149.52 4.09, 160.78 7.17 C172.04 10.26, 181.64 14.66, 187.49 18.52 C193.34 22.39, 195.89 26.19, 195.89 30.38 C195.89 34.58, 193.66 39.92, 187.51 43.69 C181.35 47.46, 170.11 50.37, 158.96 53 C147.82 55.63, 134.52 58.35, 120.61 59.47 C106.71 60.59, 89.47 60.87, 75.51 59.71 C61.56 58.55, 47.9 55.41, 36.9 52.51 C25.91 49.6, 15.49 45.98, 9.53 42.28 C3.57 38.59, 0.99 34.39, 1.15 30.32 C1.3 26.25, 4.52 21.9, 10.46 17.84 C16.41 13.77, 25.96 8.65, 36.82 5.94 C47.67 3.23, 61.68 2.64, 75.59 1.58 C89.51 0.53, 112.98 -0.42, 120.31 -0.38 C127.63 -0.34, 119.83 1.23, 119.52 1.82" stroke="#000000" stroke-width="1" fill="none"></path></g><g transform="translate(1190.0445585470234 40.360070235929186) rotate(0 66 12.5)"><text x="66" y="18" font-family="Virgil, Segoe UI Emoji" font-size="20px" fill="#000000" text-anchor="middle" style="white-space: pre;" direction="ltr">tipo_Tp_Reg</text></g><g stroke-linecap="round"><g transform="translate(1454.8133751865817 190.36227027093676) rotate(0 1.8308568346731704 -43.38315922530455)"><path d="M-1.07 0.71 C-0.14 -13.69, 4.02 -72.89, 4.73 -87.47 M0.58 0.03 C1.47 -14.07, 3.24 -71.14, 4.07 -85.95" stroke="#000000" stroke-width="1" fill="none"></path></g></g><g stroke-linecap="round"><g transform="translate(1457.494574524375 189.16375562777947) rotate(0 66.56095372576988 -60.28283337985925)"><path d="M1.1 0.6 C23.05 -19.5, 111.22 -99.18, 132.91 -119.53 M0.21 -0.14 C21.97 -20.04, 110.1 -101.06, 132.32 -121.16" stroke="#000000" stroke-width="1" fill="none"></path></g></g><g stroke-linecap="round"><g transform="translate(1453.8749434822635 192.39436240415546) rotate(0 -81.31239618321615 -55.078824267376696)"><path d="M-0.14 -0.66 C-27.17 -19.12, -134.64 -93.27, -161.54 -111.76 M-1.68 1.6 C-28.92 -16.64, -135.71 -91.99, -162.48 -110.71" stroke="#000000" stroke-width="1" fill="none"></path></g></g><g stroke-linecap="round" transform="translate(1906.736333494449 186.3153108906296) rotate(0 75 30)"><path d="M-0.03 -1.93 C58.29 -0.44, 120.58 2.99, 149.66 -0.24 M-0.41 -0.86 C56.24 0.8, 111.84 1.54, 149.13 -0.81 M149.17 0.45 C149.29 19.84, 151.49 41.81, 148.44 59.82 M149.7 0.78 C150.43 17.45, 149.93 35.14, 149.07 60.44 M148.66 59.26 C96.57 58.55, 47.66 60.04, -0.84 59.55 M149.25 60.14 C100.27 60.8, 51.39 60.8, -0.68 59.03 M-1.47 58.65 C-0.68 37.34, 2.12 16.75, -1.45 -1.82 M0.82 59.34 C0.8 45.05, 0.82 27.78, -0.06 0.28" stroke="#000000" stroke-width="1" fill="none"></path></g><g transform="translate(1921.736333494449 203.8153108906296) rotate(0 59.5 12.5)"><text x="59.5" y="18" font-family="Virgil, Segoe UI Emoji" font-size="20px" fill="#000000" text-anchor="middle" style="white-space: pre;" direction="ltr">Plano_Rega</text></g><g stroke-linecap="round" transform="translate(2151.0860690962018 69.64755951055136) rotate(0 126 30)"><path d="M110.51 0.76 C125.61 -0.06, 144.25 -0.12, 159.58 0.93 C174.91 1.99, 190.02 4.64, 202.48 7.11 C214.93 9.58, 226.38 12.73, 234.33 15.76 C242.27 18.79, 247.89 21.77, 250.16 25.3 C252.44 28.83, 252.11 33.21, 247.98 36.95 C243.86 40.68, 235.42 44.64, 225.42 47.69 C215.42 50.74, 201.74 53.37, 187.97 55.25 C174.21 57.14, 158.77 58.4, 142.83 59 C126.88 59.59, 107.92 59.66, 92.29 58.8 C76.66 57.95, 61.53 56.11, 49.03 53.86 C36.53 51.61, 25.43 48.48, 17.27 45.3 C9.1 42.12, 2.12 38.51, 0.03 34.8 C-2.05 31.09, 0.23 26.81, 4.77 23.04 C9.3 19.26, 17.38 15.3, 27.25 12.14 C37.12 8.99, 48.22 5.96, 63.98 4.09 C79.75 2.23, 109.89 1.6, 121.81 0.94 C133.74 0.29, 135.28 -0.26, 135.56 0.14 M177.49 4.03 C191.81 5.1, 205.2 6.59, 216.21 9.12 C227.22 11.65, 237.62 15.8, 243.53 19.21 C249.43 22.62, 251.93 25.74, 251.64 29.6 C251.36 33.46, 248.15 38.62, 241.82 42.37 C235.48 46.12, 225.31 49.4, 213.61 52.11 C201.92 54.83, 186.76 57.55, 171.67 58.65 C156.58 59.75, 139.28 58.73, 123.07 58.73 C106.86 58.73, 89.13 59.97, 74.41 58.64 C59.68 57.3, 45.55 53.69, 34.71 50.72 C23.87 47.74, 15.11 44.17, 9.35 40.78 C3.59 37.4, -0.26 34.34, 0.14 30.42 C0.55 26.49, 5.02 21.12, 11.77 17.22 C18.51 13.32, 28.9 9.55, 40.61 7.02 C52.33 4.49, 67.3 3.02, 82.05 2.05 C96.8 1.09, 113.21 0.99, 129.13 1.23 C145.04 1.46, 169.96 3.35, 177.56 3.45 C185.15 3.55, 175.77 1.68, 174.69 1.83" stroke="#000000" stroke-width="1" fill="none"></path></g><g transform="translate(2160.0860690962018 87.14755951055136) rotate(0 117 12.5)"><text x="117" y="18" font-family="Virgil, Segoe UI Emoji" font-size="20px" fill="#000000" text-anchor="middle" style="white-space: pre;" direction="ltr">data_inicial_PlnReg_ck</text></g><g stroke-linecap="round" transform="translate(2159.6314622731493 193.05574397600438) rotate(0 98 30)"><path d="M93.75 0.93 C107.3 0.55, 124.41 1.35, 137.34 2.97 C150.26 4.6, 162.08 7.42, 171.29 10.68 C180.5 13.94, 188.79 18.28, 192.59 22.52 C196.38 26.76, 196.5 32.04, 194.06 36.13 C191.62 40.21, 186.18 43.8, 177.94 47.05 C169.69 50.29, 157.15 53.5, 144.57 55.61 C131.99 57.71, 116.61 59.39, 102.45 59.68 C88.3 59.98, 72.59 59.08, 59.64 57.38 C46.69 55.67, 34.02 52.75, 24.75 49.44 C15.47 46.14, 7.7 41.74, 3.98 37.53 C0.26 33.32, 0.09 28.32, 2.43 24.18 C4.76 20.03, 9.73 16.22, 17.96 12.65 C26.2 9.08, 38.32 4.75, 51.83 2.75 C65.35 0.74, 90.3 0.89, 99.04 0.6 C107.79 0.3, 104.44 0.6, 104.31 0.98 M56.02 1.58 C67.24 -0.78, 83.35 -0.99, 97.28 -0.63 C111.21 -0.26, 126.58 1.78, 139.59 3.78 C152.59 5.78, 166.11 8.06, 175.32 11.38 C184.54 14.7, 191.69 19.49, 194.87 23.71 C198.05 27.94, 197.87 32.64, 194.42 36.71 C190.96 40.78, 182.93 44.89, 174.16 48.14 C165.38 51.39, 154.61 54.06, 141.78 56.21 C128.94 58.35, 111.53 60.89, 97.17 61.02 C82.8 61.14, 68.03 58.99, 55.57 56.97 C43.1 54.94, 30.97 52.05, 22.36 48.87 C13.74 45.69, 7.01 42.33, 3.87 37.89 C0.73 33.45, 0.57 26.43, 3.51 22.23 C6.44 18.03, 12.85 15.87, 21.47 12.7 C30.1 9.53, 49.47 4.52, 55.24 3.22 C61.01 1.92, 55.56 4.63, 56.1 4.91" stroke="#000000" stroke-width="1" fill="none"></path></g><g transform="translate(2198.6314622731493 210.55574397600438) rotate(0 59 12.5)"><text x="59" y="18" font-family="Virgil, Segoe UI Emoji" font-size="20px" fill="#000000" text-anchor="middle" style="white-space: pre;" direction="ltr">ID_Prcl_ck</text></g><g stroke-linecap="round" transform="translate(1892.5363212874176 75.36537497754367) rotate(0 98 30)"><path d="M100.7 -0.54 C114.15 -0.73, 129.11 1.87, 141.63 3.91 C154.14 5.95, 166.98 8.36, 175.81 11.71 C184.63 15.06, 191.53 19.61, 194.57 24 C197.6 28.38, 197.44 33.97, 194.03 38.04 C190.62 42.11, 183.31 45.05, 174.12 48.41 C164.93 51.77, 151.91 56.24, 138.88 58.2 C125.86 60.16, 110.18 60.24, 95.98 60.15 C81.77 60.07, 66.42 59.77, 53.65 57.7 C40.89 55.63, 27.92 51.48, 19.41 47.73 C10.9 43.97, 5.25 39.23, 2.6 35.16 C-0.06 31.09, 0.11 27.49, 3.46 23.3 C6.82 19.12, 13.65 13.6, 22.72 10.06 C31.8 6.52, 42.64 3.52, 57.91 2.07 C73.19 0.62, 103.04 1.29, 114.4 1.36 C125.75 1.42, 126.47 2.21, 126.05 2.46 M123.09 0.91 C136.58 1.28, 150.8 4.21, 161.64 6.94 C172.48 9.67, 182.32 13.36, 188.14 17.31 C193.95 21.25, 197.36 26.08, 196.52 30.6 C195.69 35.13, 189.71 40.64, 183.1 44.46 C176.5 48.28, 168.04 51.02, 156.89 53.53 C145.74 56.03, 130.26 58.43, 116.21 59.48 C102.16 60.54, 86.09 61.15, 72.6 59.86 C59.11 58.57, 46.13 54.85, 35.28 51.74 C24.42 48.63, 13.19 45.07, 7.45 41.21 C1.72 37.35, 0.15 32.54, 0.87 28.56 C1.59 24.59, 5.31 21.23, 11.79 17.38 C18.27 13.52, 28.38 8.38, 39.74 5.44 C51.11 2.5, 66.16 0.39, 79.97 -0.28 C93.79 -0.94, 115.57 1.29, 122.61 1.46 C129.65 1.63, 122.68 0.44, 122.21 0.73" stroke="#000000" stroke-width="1" fill="none"></path></g><g transform="translate(1920.0363212874176 92.86537497754367) rotate(0 70.5 12.5)"><text x="70.5" y="18" font-family="Virgil, Segoe UI Emoji" font-size="20px" fill="#000000" text-anchor="middle" style="white-space: pre;" direction="ltr">ID_TpReg_fk</text></g><g stroke-linecap="round"><g transform="translate(1981.736333494449 136.5653566669968) rotate(0 1.5654139385048893 24.31769555670209)"><path d="M-0.31 0.11 C-0.26 8.07, 0.92 40.37, 1.3 48.53 M1.73 -0.88 C2.05 7.12, 3.56 41.01, 3.43 49.51" stroke="#000000" stroke-width="1" fill="none"></path></g></g><g stroke-linecap="round"><g transform="translate(2162.8735291548837 117.41219184131691) rotate(0 -60.90079945303194 34.78744979547162)"><path d="M-0.83 0.3 C-21.13 11.71, -101.74 57.41, -122.22 69.17 M0.93 -0.59 C-19.41 10.88, -101.78 58.58, -122.73 70.17" stroke="#000000" stroke-width="1" fill="none"></path></g></g><g stroke-linecap="round" transform="translate(1974.7947214926178 486.5155421706305) rotate(359.09203337286056 89 29.070676968607415)"><path d="M0.95 -0.65 C43.48 -0.91, 90.58 -1.2, 179.89 -1.82 M-0.53 0.18 C67.42 1.69, 137.08 0.36, 178.21 0.74 M179.29 -0.38 C177.85 14.67, 178.93 30.43, 179.05 59.74 M177.68 -0.27 C177.47 23.79, 178.33 45.33, 178.96 57.27 M177.32 59.78 C133.85 56.44, 90.03 57.94, 1.64 56.51 M177.69 57.32 C109.84 57.53, 40.18 58.5, -0.71 57.15 M0.74 59.87 C0.96 36.79, -1.07 13.5, -0.77 -0.73 M0.38 57.95 C-0.94 35.94, -0.92 14.02, -0.6 -0.3" stroke="#000000" stroke-width="1" fill="none"></path></g><g transform="translate(1979.510408103713 501.08621913923787) rotate(359.09203337286056 84 14.5)"><text x="84" y="20" font-family="Virgil, Segoe UI Emoji" font-size="22.49533564396239px" fill="#000000" text-anchor="middle" style="white-space: pre;" direction="ltr">Registo_Regas</text></g><g stroke-linecap="round" transform="translate(2311.012120644868 509.56609439748445) rotate(359.09203337286056 74 30.07311410545597)"><path d="M60.69 -0.22 C72.11 -1.36, 86.41 0.18, 98.04 1.95 C109.67 3.71, 122.24 6.57, 130.45 10.39 C138.66 14.21, 145.11 20.03, 147.32 24.89 C149.53 29.75, 147.73 34.84, 143.7 39.55 C139.68 44.27, 132.57 49.83, 123.18 53.18 C113.8 56.53, 99.56 58.82, 87.38 59.66 C75.2 60.5, 61.57 59.95, 50.09 58.21 C38.62 56.47, 26.51 53.01, 18.54 49.21 C10.57 45.41, 4.6 40.17, 2.28 35.39 C-0.04 30.62, 0.81 25.15, 4.61 20.57 C8.42 15.99, 15.23 11.36, 25.09 7.92 C34.95 4.47, 56.43 1.02, 63.77 -0.11 C71.12 -1.24, 68.77 0.45, 69.16 1.14 M76.76 -1.45 C88.23 -1.62, 102.98 2.86, 113.32 5.96 C123.66 9.06, 132.82 12.99, 138.8 17.12 C144.78 21.25, 149.44 26.09, 149.22 30.75 C149.01 35.41, 144.37 40.97, 137.5 45.08 C130.63 49.2, 118.98 52.81, 108 55.46 C97.02 58.1, 83.99 60.92, 71.61 60.94 C59.23 60.96, 44.24 58.54, 33.72 55.6 C23.2 52.65, 14.08 47.91, 8.49 43.26 C2.91 38.61, -0.45 32.53, 0.19 27.72 C0.82 22.9, 5.67 18.54, 12.31 14.4 C18.95 10.25, 28.91 5.21, 40 2.83 C51.09 0.45, 72.62 0.51, 78.84 0.12 C85.07 -0.27, 77.7 -0.19, 77.36 0.5" stroke="#000000" stroke-width="1" fill="none"></path></g><g transform="translate(2315.691250203235 524.6392085029404) rotate(359.09203337286056 69 15)"><text x="69" y="21" font-family="Virgil, Segoe UI Emoji" font-size="23.31787001895623px" fill="#000000" text-anchor="middle" style="white-space: pre;" direction="ltr">ID_Prcl_ck</text></g><g stroke-linecap="round" transform="translate(2216.3123625715093 441.24255103060193) rotate(359.09203337286056 74.5 30.07311410545597)"><path d="M75.04 -0.46 C85.97 -0.96, 99.31 1.42, 109.44 3.84 C119.56 6.25, 129.44 10.22, 135.8 14.02 C142.17 17.81, 146.13 22.02, 147.62 26.59 C149.1 31.16, 148.71 37.23, 144.71 41.44 C140.71 45.65, 132.57 49, 123.63 51.86 C114.69 54.72, 102.25 57.28, 91.07 58.61 C79.88 59.94, 67.65 60.81, 56.5 59.83 C45.36 58.85, 32.79 55.88, 24.22 52.72 C15.66 49.56, 9.03 45.13, 5.11 40.86 C1.2 36.6, -0.73 31.88, 0.74 27.14 C2.21 22.41, 7.34 16.27, 13.93 12.46 C20.52 8.65, 29.39 6.47, 40.28 4.29 C51.18 2.11, 71.96 -0.16, 79.3 -0.63 C86.63 -1.09, 84.34 0.97, 84.3 1.5 M42.71 3.39 C51.92 1.08, 65.66 0.82, 77.38 0.78 C89.09 0.73, 102.82 0.62, 113.01 3.11 C123.2 5.6, 132.57 11.76, 138.51 15.7 C144.46 19.65, 148.19 22.14, 148.68 26.77 C149.16 31.41, 146.14 39.08, 141.45 43.5 C136.75 47.92, 129.43 50.54, 120.49 53.3 C111.56 56.05, 98.98 58.88, 87.85 60.05 C76.72 61.21, 64.73 61.62, 53.72 60.28 C42.71 58.93, 30.03 55.34, 21.8 51.97 C13.56 48.61, 7.71 44.8, 4.31 40.09 C0.91 35.37, -0.23 28.23, 1.41 23.68 C3.05 19.14, 7.17 16.21, 14.16 12.82 C21.16 9.42, 38.58 4.97, 43.36 3.33 C48.15 1.68, 42.27 2.45, 42.89 2.93" stroke="#000000" stroke-width="1" fill="none"></path></g><g transform="translate(2220.9927106983005 456.8156651360579) rotate(359.09203337286056 69.5 14.5)"><text x="69.5" y="20" font-family="Virgil, Segoe UI Emoji" font-size="22.744646668617083px" fill="#000000" text-anchor="middle" style="white-space: pre;" direction="ltr">ID_Cult_ck</text></g><g stroke-linecap="round" transform="translate(2222.7268792186906 612.691206042968) rotate(359.09203337286056 96.23396513745911 30.07311410545597)"><path d="M53.9 2.67 C65.09 0.55, 80.74 -0.38, 94.62 -0.21 C108.5 -0.04, 124.62 1.67, 137.18 3.7 C149.73 5.73, 161.16 8.68, 169.97 11.99 C178.78 15.3, 186.68 19.51, 190.01 23.56 C193.33 27.61, 192.85 32.09, 189.91 36.29 C186.96 40.5, 180.7 45.47, 172.35 48.8 C163.99 52.13, 152.27 54.36, 139.77 56.28 C127.27 58.2, 111.42 60.27, 97.36 60.3 C83.3 60.33, 68.07 58.21, 55.42 56.45 C42.76 54.69, 30.31 52.84, 21.43 49.76 C12.55 46.67, 5.4 42.16, 2.13 37.91 C-1.14 33.66, -1.06 28.47, 1.8 24.25 C4.66 20.03, 9.93 16.07, 19.29 12.6 C28.65 9.12, 50.79 5.12, 57.94 3.4 C65.08 1.68, 61.59 2.08, 62.18 2.26 M109.8 1.68 C122.96 1.93, 138.95 2.9, 150.47 4.97 C161.98 7.03, 171.9 10.27, 178.9 14.06 C185.9 17.84, 191.32 22.92, 192.48 27.66 C193.64 32.41, 190.87 38.23, 185.88 42.52 C180.89 46.81, 172.79 50.62, 162.54 53.41 C152.29 56.19, 137.84 58.14, 124.39 59.22 C110.94 60.31, 95.52 60.4, 81.86 59.92 C68.19 59.43, 53.74 59.02, 42.38 56.31 C31.02 53.6, 20.55 47.72, 13.71 43.66 C6.86 39.6, 2.56 36.22, 1.31 31.98 C0.06 27.73, 1.01 21.99, 6.19 18.2 C11.36 14.4, 22.05 12.27, 32.37 9.2 C42.69 6.14, 55.2 1.54, 68.11 -0.17 C81.02 -1.87, 102.78 -1.14, 109.83 -1.03 C116.88 -0.91, 110.36 -0.42, 110.4 0.54" stroke="#000000" stroke-width="1" fill="none"></path></g><g transform="translate(2227.960844356149 626.264320148424) rotate(359.09203337286056 91 16.5)"><text x="91" y="23" font-family="Virgil, Segoe UI Emoji" font-size="25.84575440408241px" fill="#000000" text-anchor="middle" style="white-space: pre;" direction="ltr">ID_TpReg_fk</text></g><g stroke-linecap="round" transform="translate(1680.8457574271288 501.6346928274845) rotate(0 88.5 17.5)"><path d="M-0.25 0.63 C60.89 -1.93, 123.82 -0.21, 177.94 -1.69 M-0.65 -0.63 C43.01 1.21, 86.02 1.2, 176.88 -0.67 M178.79 0.37 C175.3 11.86, 176.1 23.81, 177.13 34.97 M177.04 0.48 C176.3 13.34, 177.52 25.63, 177.81 35.47 M177.26 33.16 C140.42 34.98, 104.21 35.37, 1.63 36.4 M177.19 35.25 C131.43 34.8, 88.35 35.23, -0.7 34.42 M1.36 35.06 C1.02 23.89, 0.91 7.98, 0.01 0.6 M0.8 35.72 C-0.88 25.3, -0.31 16.32, 0.39 -0.48" stroke="#000000" stroke-width="1" fill="none"></path></g><g transform="translate(1730.8457574271288 512.8846928274845) rotate(0 38.5 12.5)"><text x="38.5" y="18" font-family="Virgil, Segoe UI Emoji" font-size="20px" fill="#000000" text-anchor="middle" style="white-space: pre;" direction="ltr">Parcela</text></g><g stroke-linecap="round" transform="translate(1684.5872674772518 409.98422995309136) rotate(0 66.49999999999994 25.5)"><path d="M92.3 1.69 C102.5 2.69, 112.32 5.97, 118.88 9.48 C125.45 12.99, 130.22 18.48, 131.69 22.76 C133.16 27.04, 131.91 31.33, 127.69 35.17 C123.47 39, 115.14 43.08, 106.36 45.76 C97.58 48.44, 85.9 50.54, 75.02 51.25 C64.14 51.96, 51.34 51.59, 41.06 50.05 C30.78 48.5, 19.95 45.41, 13.35 41.98 C6.74 38.54, 2.77 33.74, 1.43 29.45 C0.09 25.15, 1.19 20.15, 5.3 16.2 C9.41 12.25, 17.29 8.49, 26.08 5.75 C34.88 3, 46.24 0.12, 58.07 -0.26 C69.9 -0.64, 90 2.64, 97.07 3.44 C104.15 4.24, 100.91 4.35, 100.5 4.54 M47.57 1.53 C57.64 -0.15, 72.58 -0.68, 83.45 0.01 C94.31 0.7, 104.74 2.38, 112.76 5.66 C120.79 8.95, 128.5 15.54, 131.58 19.72 C134.67 23.9, 134.24 27.03, 131.26 30.75 C128.27 34.47, 121.5 38.66, 113.66 42.04 C105.82 45.42, 94.88 49.76, 84.2 51.04 C73.53 52.31, 60.19 51.12, 49.63 49.72 C39.07 48.32, 28.54 45.68, 20.82 42.63 C13.11 39.58, 6.28 35.21, 3.35 31.42 C0.41 27.64, 0.67 24.01, 3.22 19.91 C5.76 15.81, 11.19 9.74, 18.62 6.81 C26.06 3.88, 42.72 3.37, 47.84 2.32 C52.96 1.28, 48.9 0.23, 49.33 0.55" stroke="#000000" stroke-width="1" fill="none"></path></g><g transform="translate(1692.0872674772518 422.98422995309136) rotate(0 59 12.5)"><text x="59" y="18" font-family="Virgil, Segoe UI Emoji" font-size="20px" fill="#000000" text-anchor="middle" style="white-space: pre;" direction="ltr">ID_Prcl_pk</text></g><g stroke-linecap="round" transform="translate(1816.1849463178103 597.1287695052488) rotate(0 85.5 28.609354570424102)"><path d="M107.21 1.17 C119.87 1.94, 134.67 4.65, 144.38 7.53 C154.09 10.4, 161.12 14.21, 165.46 18.42 C169.81 22.64, 172.22 28.34, 170.45 32.82 C168.67 37.31, 162.65 41.77, 154.81 45.34 C146.97 48.91, 135.33 52.22, 123.43 54.24 C111.53 56.27, 96.63 57.46, 83.43 57.49 C70.24 57.53, 55.96 56.8, 44.26 54.45 C32.57 52.1, 20.42 47.36, 13.26 43.39 C6.09 39.41, 2.35 34.96, 1.27 30.6 C0.19 26.23, 1.84 21.34, 6.78 17.21 C11.71 13.08, 20.79 8.51, 30.87 5.83 C40.95 3.16, 53.27 1.88, 67.24 1.16 C81.21 0.44, 105.68 1.13, 114.7 1.51 C123.72 1.9, 121.7 3.03, 121.35 3.46 M114.08 0.96 C126.15 2.28, 137 7.13, 146.09 10.29 C155.17 13.45, 164.81 16.12, 168.6 19.92 C172.39 23.72, 171.76 28.73, 168.81 33.09 C165.87 37.45, 159.54 42.53, 150.94 46.1 C142.35 49.67, 129.39 52.81, 117.25 54.53 C105.11 56.25, 90.94 56.8, 78.08 56.43 C65.23 56.06, 51.1 54.75, 40.13 52.28 C29.16 49.82, 19.04 45.62, 12.27 41.64 C5.5 37.67, -0.03 32.55, -0.51 28.44 C-0.99 24.33, 3.38 20.92, 9.4 16.98 C15.41 13.04, 25.14 7.72, 35.57 4.81 C46.01 1.9, 59.03 -0.13, 72 -0.48 C84.96 -0.82, 106.7 2.24, 113.37 2.74 C120.04 3.24, 112.8 2.06, 112.02 2.54" stroke="#000000" stroke-width="1" fill="none"></path></g><g transform="translate(1821.0361874529092 613.2381240756731) rotate(0 80.5 12.5)"><text x="80.5" y="18" font-family="Virgil, Segoe UI Emoji" font-size="20.068390852011717px" fill="#000000" text-anchor="middle" style="white-space: pre;" direction="ltr">designacao_Pcrl</text></g><g stroke-linecap="round" transform="translate(1748.065033230402 652.0488409965977) rotate(0 66 30)"><path d="M44.81 1.65 C54.31 -0.09, 67.42 0.57, 78.14 1.39 C88.85 2.21, 100.66 3.34, 109.08 6.58 C117.5 9.82, 125.21 15.97, 128.67 20.81 C132.13 25.65, 131.86 30.97, 129.84 35.64 C127.82 40.31, 123.59 44.97, 116.54 48.82 C109.49 52.66, 98.11 57.07, 87.54 58.7 C76.97 60.33, 63.92 59.59, 53.1 58.58 C42.28 57.57, 30.82 55.84, 22.6 52.62 C14.38 49.4, 7.5 44.02, 3.77 39.25 C0.04 34.47, -1.77 28.88, 0.21 23.97 C2.19 19.05, 7.32 13.69, 15.66 9.77 C24 5.85, 43.29 1.81, 50.24 0.44 C57.18 -0.93, 56.79 1.07, 57.32 1.55 M85.58 0.34 C95.95 1.18, 106.1 5.11, 113.63 8.76 C121.15 12.41, 128.01 17.33, 130.72 22.24 C133.43 27.15, 132.9 33.11, 129.9 38.22 C126.9 43.33, 120.69 49.46, 112.72 52.91 C104.75 56.36, 93.2 58.12, 82.08 58.94 C70.95 59.76, 56.77 59.14, 45.97 57.83 C35.16 56.51, 24.71 54.6, 17.24 51.05 C9.77 47.51, 3.32 41.28, 1.14 36.54 C-1.03 31.81, 1.05 27.29, 4.19 22.63 C7.33 17.96, 11.97 12.17, 19.98 8.57 C27.98 4.97, 41.38 2.36, 52.22 1.03 C63.06 -0.31, 79.63 0.38, 85 0.58 C90.38 0.77, 84.92 1.49, 84.47 2.17" stroke="#000000" stroke-width="1" fill="none"></path></g><g transform="translate(1763.065033230402 669.5488409965978) rotate(0 51 12.5)"><text x="51" y="18" font-family="Virgil, Segoe UI Emoji" font-size="20px" fill="#000000" text-anchor="middle" style="white-space: pre;" direction="ltr">area_Prcl</text></g><g stroke-linecap="round"><g transform="translate(1864.5602239340105 599.1826070540717) rotate(0 -21.503433389387283 -29.915038421372657)"><path d="M0.5 -0.74 C-6.44 -10.96, -35.36 -51.19, -42.39 -61.31 M-0.7 1.48 C-7.76 -8.57, -36.58 -49.72, -43.51 -60.05" stroke="#000000" stroke-width="1" fill="none"></path></g></g><g stroke-linecap="round" transform="translate(1411.7403670215442 842.5020755963986) rotate(0 88.5 17.5)"><path d="M-0.21 -1.28 C49.11 -0.46, 96.39 1.6, 178.2 -1.45 M0.22 0.84 C64.66 0.26, 130.16 -0.18, 177.6 0.24 M178.53 -1.79 C176.19 11.58, 176.1 21.25, 178.14 34.5 M176.27 -0.94 C176.19 8.08, 176.76 17.01, 176.44 34.85 M177.72 36.77 C119.8 36.69, 64.51 36.72, -1.86 35.79 M177.62 35.88 C115.19 33.58, 55.89 32.94, 0.56 34.34 M0.82 33.37 C0.27 28.72, -0.17 21.6, -0.52 -1.75 M0.11 35.29 C-1.24 26.53, -0.93 18, 0.18 -0.51" stroke="#000000" stroke-width="1" fill="none"></path></g><g transform="translate(1416.7403670215442 847.5020755963986) rotate(0 83.5 12.5)"><text x="83.5" y="18" font-family="Virgil, Segoe UI Emoji" font-size="20px" fill="#000000" text-anchor="middle" style="white-space: pre;" direction="ltr">Registo_colheita</text></g><g stroke-linecap="round" transform="translate(1218.61368019252 821.5888014539076) rotate(0 72 30)"><path d="M75.44 -0.57 C86.85 -0.7, 100.31 2.04, 110.38 4.75 C120.46 7.46, 130.36 11.3, 135.88 15.67 C141.4 20.04, 143.97 25.94, 143.51 30.99 C143.05 36.03, 139.58 41.61, 133.09 45.95 C126.6 50.3, 115.33 54.58, 104.56 57.04 C93.8 59.5, 80.35 60.92, 68.5 60.71 C56.64 60.51, 43.42 58.68, 33.45 55.82 C23.48 52.97, 14.1 48.08, 8.66 43.6 C3.22 39.12, 0.33 33.99, 0.81 28.96 C1.28 23.92, 5.31 17.62, 11.52 13.39 C17.73 9.16, 26.83 5.8, 38.09 3.57 C49.35 1.35, 71.88 0.66, 79.09 0.05 C86.3 -0.55, 81.73 -0.59, 81.37 -0.05 M66.68 0.5 C77.86 -0.39, 91.24 0.23, 101.94 2.38 C112.64 4.54, 123.67 9.46, 130.89 13.43 C138.1 17.4, 143.94 21.11, 145.21 26.21 C146.48 31.3, 143.92 39.39, 138.51 43.98 C133.1 48.58, 122.95 51.21, 112.75 53.78 C102.54 56.36, 89.29 58.83, 77.27 59.42 C65.26 60.01, 51.26 59.24, 40.66 57.32 C30.06 55.4, 20.41 52.23, 13.67 47.88 C6.92 43.53, 1.34 36.29, 0.18 31.22 C-0.98 26.15, 1.4 21.55, 6.69 17.43 C11.97 13.32, 21.89 9.22, 31.91 6.51 C41.93 3.81, 61.24 2.3, 66.81 1.2 C72.39 0.11, 65.19 -0.29, 65.35 -0.06" stroke="#000000" stroke-width="1" fill="none"></path></g><g transform="translate(1231.61368019252 839.0888014539076) rotate(0 59 12.5)"><text x="59" y="18" font-family="Virgil, Segoe UI Emoji" font-size="20px" fill="#000000" text-anchor="middle" style="white-space: pre;" direction="ltr">ID_Prcl_ck</text></g><g stroke-linecap="round"><g transform="translate(1360.7216635202083 844.3581069142118) rotate(0 25.009052411664698 5.25332036762336)"><path d="M-1.07 -0.48 C7.56 1.44, 42.4 8.78, 51.08 10.67 M0.58 -1.78 C9.08 0.44, 41.78 9.94, 50.04 12.29" stroke="#000000" stroke-width="1" fill="none"></path></g></g><g stroke-linecap="round" transform="translate(1199.132165273621 912.7936093574905) rotate(0 74 30)"><path d="M81.28 -0.28 C92.94 -0.11, 106.6 3.04, 116.59 6.15 C126.58 9.25, 136.22 14.04, 141.24 18.35 C146.27 22.66, 147.99 27.07, 146.73 32.02 C145.47 36.97, 140.8 43.9, 133.69 48.04 C126.58 52.19, 115.04 55.07, 104.05 56.9 C93.07 58.72, 80.06 59.36, 67.79 59.02 C55.53 58.67, 40.73 57.62, 30.47 54.82 C20.2 52.02, 11.14 46.76, 6.2 42.21 C1.26 37.65, -0.44 32.55, 0.81 27.47 C2.07 22.4, 6.66 15.8, 13.73 11.77 C20.79 7.75, 31.2 5.3, 43.21 3.33 C55.22 1.36, 78.07 0.14, 85.79 -0.06 C93.5 -0.26, 89.63 1.52, 89.49 2.15 M85.29 1.09 C97.04 1.34, 111.48 4.93, 121.02 7.91 C130.55 10.88, 138.3 14.36, 142.51 18.93 C146.71 23.5, 147.95 30.15, 146.24 35.32 C144.53 40.49, 139.88 46.33, 132.25 49.97 C124.62 53.6, 111.91 55.62, 100.44 57.12 C88.97 58.61, 75.44 59.5, 63.42 58.92 C51.41 58.34, 38.07 56.58, 28.34 53.64 C18.61 50.71, 9.83 45.96, 5.04 41.32 C0.24 36.69, -2.01 30.97, -0.44 25.86 C1.13 20.74, 6.48 14.45, 14.45 10.64 C22.43 6.83, 35.6 4.65, 47.41 2.99 C59.22 1.33, 79.04 1.13, 85.32 0.66 C91.6 0.19, 85.28 -0.11, 85.06 0.15" stroke="#000000" stroke-width="1" fill="none"></path></g><g transform="translate(1212.132165273621 930.2936093574905) rotate(0 61 12.5)"><text x="61" y="18" font-family="Virgil, Segoe UI Emoji" font-size="20px" fill="#000000" text-anchor="middle" style="white-space: pre;" direction="ltr">ID_Cult_ck</text></g><g stroke-linecap="round"><g transform="translate(1339.0296802020575 928.8252871461851) rotate(0 42.8871321341785 -25.814012772707542)"><path d="M-0.33 -1.19 C14.06 -9.72, 71.63 -42.28, 86.1 -50.64 M1.7 0.8 C16.01 -8.13, 71.4 -43.95, 85.49 -52.42" stroke="#000000" stroke-width="1" fill="none"></path></g></g><g stroke-linecap="round" transform="translate(1211.7857804171517 989.0441243026196) rotate(0 86.5 30)"><path d="M118.55 1.33 C130.71 2.31, 143.3 5.85, 152.08 9.57 C160.87 13.29, 168.34 18.87, 171.24 23.64 C174.15 28.4, 173.09 33.67, 169.51 38.15 C165.93 42.63, 158.75 47.31, 149.75 50.52 C140.74 53.72, 127.91 55.97, 115.47 57.37 C103.04 58.77, 88.45 59.3, 75.14 58.91 C61.84 58.52, 46.59 57.67, 35.65 55.03 C24.7 52.39, 15.41 47.36, 9.47 43.05 C3.52 38.74, -0.34 33.74, -0.04 29.15 C0.27 24.56, 4.75 19.49, 11.28 15.48 C17.81 11.48, 28.24 7.53, 39.16 5.12 C50.09 2.7, 62.42 1.13, 76.84 1.01 C91.26 0.88, 116.17 3.73, 125.67 4.36 C135.16 4.99, 134.35 4.39, 133.82 4.76 M63.44 1.68 C75.07 0.31, 90.46 0.44, 103.58 1.44 C116.7 2.44, 131.89 4.81, 142.15 7.69 C152.42 10.57, 159.99 14.59, 165.17 18.73 C170.36 22.87, 174.38 27.93, 173.28 32.52 C172.18 37.11, 166.04 42.33, 158.57 46.26 C151.11 50.19, 139.98 53.84, 128.47 56.11 C116.97 58.37, 102.88 59.8, 89.53 59.86 C76.19 59.91, 60.28 58.4, 48.41 56.42 C36.53 54.45, 26.13 51.43, 18.26 48.02 C10.39 44.61, 3.55 40.77, 1.19 35.96 C-1.16 31.14, -0.42 23.91, 4.12 19.14 C8.66 14.37, 18.49 10.29, 28.43 7.34 C38.37 4.38, 58.03 2.35, 63.74 1.4 C69.45 0.44, 62.54 1.12, 62.69 1.59" stroke="#000000" stroke-width="1" fill="none"></path></g><g transform="translate(1228.2857804171522 1006.5441243026194) rotate(0 70 12.5)"><text x="70" y="18" font-family="Virgil, Segoe UI Emoji" font-size="20px" fill="#000000" text-anchor="middle" style="white-space: pre;" direction="ltr">data_colh_ck</text></g><g stroke-linecap="round"><g transform="translate(1331.7990358128304 991.7648772955565) rotate(0 49.76170521844722 -56.98501276332604)"><path d="M-0.91 1.02 C15.83 -17.95, 83.37 -94.27, 100.43 -113.39 M0.82 0.51 C17.38 -18.82, 82.68 -95.63, 99.41 -114.99" stroke="#000000" stroke-width="1" fill="none"></path></g></g><g stroke-linecap="round" transform="translate(1400.0373628653895 1003.1768021366202) rotate(0 114.5 30)"><path d="M130.81 0.37 C145.4 0.31, 162.36 1.84, 175.6 4.19 C188.84 6.54, 201.61 11.12, 210.24 14.46 C218.86 17.79, 224.71 20.32, 227.35 24.19 C229.99 28.06, 229.93 33.69, 226.07 37.69 C222.22 41.69, 213.91 44.88, 204.23 48.19 C194.54 51.5, 181.86 55.6, 167.95 57.55 C154.05 59.5, 136.41 59.96, 120.78 59.89 C105.15 59.83, 88.65 58.73, 74.17 57.18 C59.68 55.62, 44.86 53.14, 33.86 50.57 C22.87 47.99, 13.74 45.51, 8.17 41.73 C2.59 37.96, -0.21 32.05, 0.41 27.93 C1.03 23.81, 5.07 20.61, 11.87 17.01 C18.68 13.42, 29.11 8.9, 41.24 6.38 C53.37 3.87, 67.61 2.72, 84.64 1.93 C101.68 1.15, 131.91 1.74, 143.48 1.67 C155.04 1.6, 154.49 1.01, 154.03 1.51 M94.06 -0.38 C107.98 -1.31, 126.57 0.04, 141.97 0.97 C157.36 1.9, 174.25 2.52, 186.42 5.2 C198.6 7.89, 208.16 13.32, 215 17.08 C221.84 20.83, 226.52 23.65, 227.46 27.71 C228.39 31.76, 225.74 37.43, 220.61 41.41 C215.49 45.39, 207.45 48.72, 196.71 51.59 C185.97 54.46, 170.49 57.1, 156.16 58.62 C141.84 60.14, 126.22 61.04, 110.78 60.71 C95.34 60.38, 77.48 58.71, 63.53 56.65 C49.59 54.59, 37.12 51.57, 27.13 48.36 C17.14 45.15, 8.1 41.42, 3.61 37.38 C-0.89 33.35, -2.32 28.19, 0.17 24.16 C2.65 20.14, 10.09 16.2, 18.51 13.23 C26.94 10.27, 37.69 8.28, 50.7 6.39 C63.72 4.49, 89.12 2.98, 96.63 1.86 C104.14 0.74, 95.85 -0.6, 95.77 -0.32" stroke="#000000" stroke-width="1" fill="none"></path></g><g transform="translate(1414.537362865389 1020.6768021366202) rotate(0 100 12.5)"><text x="100" y="18" font-family="Virgil, Segoe UI Emoji" font-size="20px" fill="#000000" text-anchor="middle" style="white-space: pre;" direction="ltr">quantidade_RgtColh</text></g><g stroke-linecap="round"><g transform="translate(1483.6427685884776 1002.4465007943186) rotate(0 21.044493515022623 -63.02504151507719)"><path d="M1.14 0.84 C8.09 -19.95, 35.2 -103.9, 41.8 -125.26 M0.28 0.23 C7.1 -20.82, 34.5 -105.75, 41.06 -126.89" stroke="#000000" stroke-width="1" fill="none"></path></g></g><g stroke-linecap="round"><g transform="translate(1151.1903407790314 226.087224603174) rotate(0 126.14109012709855 -1.2378428360089107)"><path d="M-0.32 -1.15 C41.98 -1.72, 210.45 -3.24, 252.6 -3.34 M1.71 0.87 C43.91 0.42, 209.76 -1.42, 251.41 -2.18" stroke="#000000" stroke-width="1" fill="none"></path></g></g><g stroke-linecap="round"><g transform="translate(2058.9263257655366 211.99991560113662) rotate(0 52.490862689483265 -0.589743972338848)"><path d="M-1.03 -0.41 C16.46 -0.65, 86.21 -0.79, 103.83 -0.68 M0.62 -1.67 C18.58 -1.82, 88.81 -0.06, 106.02 0.5" stroke="#000000" stroke-width="1" fill="none"></path></g></g><g stroke-linecap="round"><g transform="translate(1552.914286100421 223.6473693535224) rotate(0 177.08209878716934 -5.121169036292475)"><path d="M0.67 0.69 C59.31 -0.8, 293.61 -7.56, 352.38 -9.34 M-0.44 0 C58.52 -1.76, 295.79 -8.91, 354.6 -10.93" stroke="#000000" stroke-width="1" fill="none"></path></g></g><g stroke-linecap="round"><g transform="translate(2151.7005470642516 502.7788759767217) rotate(0 33.36742019069959 -15.855024517329554)"><path d="M0.89 0.09 C12.07 -5.02, 56.15 -25.07, 66.83 -30.15 M-0.1 -0.91 C11.01 -6.38, 55.08 -26.54, 66.32 -31.8" stroke="#000000" stroke-width="1" fill="none"></path></g></g><g stroke-linecap="round"><g transform="translate(2129.699965646997 542.8975048592602) rotate(0 56.525910180634696 38.632805865455595)"><path d="M-0.55 -0.46 C18.37 12.62, 94.35 64.76, 113.6 77.98 M1.37 -1.74 C20.09 11.49, 93.6 65.37, 112.5 79.01" stroke="#000000" stroke-width="1" fill="none"></path></g></g><g stroke-linecap="round"><g transform="translate(1976.9905180207852 247.8316632199415) rotate(0 23.9752237199541 119.43313592565345)"><path d="M0.49 0.72 C8.8 40.13, 40.71 198.07, 48.67 237.57 M-0.72 0.05 C7.61 40.13, 40.08 199.02, 48.13 238.82" stroke="#000000" stroke-width="1" fill="none"></path></g></g><g stroke-linecap="round"><g transform="translate(1926.680441156673 245.64780266725072) rotate(0 -54.34636970631698 126.13225237924415)"><path d="M-0.03 -1 C-17.97 41.31, -89.76 211.19, -108.06 253.26 M-1.5 1.09 C-19.51 43.12, -91 209.74, -108.67 251.61" stroke="#000000" stroke-width="1" fill="none"></path></g></g><g stroke-linecap="round"><g transform="translate(1858.0907358796662 518.7130875732358) rotate(0 57.971512013948086 -0.6968927416134534)"><path d="M-0.36 0.25 C19.2 0.16, 97.21 0.39, 116.31 0.3 M1.65 -0.67 C21.24 -1.21, 96.79 -1.93, 115.95 -1.66" stroke="#000000" stroke-width="1" fill="none"></path></g></g><g stroke-linecap="round"><g transform="translate(1784.324219931014 536.8311844063618) rotate(0 11.108684744251036 58.104647956617725)"><path d="M-0.27 1.14 C3.06 20.45, 16.7 96.62, 20.09 115.51 M1.8 0.7 C5.5 19.66, 19.62 94.43, 22.48 113.56" stroke="#000000" stroke-width="1" fill="none"></path></g></g><g stroke-linecap="round"><g transform="translate(1705.3810907820853 538.7723773305838) rotate(0 -71.21202355509013 150.97924706732098)"><path d="M-0.33 0.22 C-24.36 50.47, -119.62 251.29, -143.78 301.72 M1.7 -0.71 C-22.43 49.63, -119.46 251.88, -144.12 302.67" stroke="#000000" stroke-width="1" fill="none"></path></g></g><g stroke-linecap="round" transform="translate(1302.9009695476066 494.447756393801) rotate(0 78.29596610517024 23.94174965755559)"><path d="M1.34 0.41 C34.7 1.48, 72.61 -2.21, 157.55 1.73 M0.9 0.72 C55.79 -2.05, 109.5 -2.12, 155.92 -0.13 M156.58 1.1 C155.91 16.7, 157.75 36.65, 155.25 47.31 M155.73 0.11 C157.02 11.09, 156.02 21.9, 156.58 48.7 M158.09 49.72 C125.81 49.11, 94.27 50.5, 0.55 47.57 M156.11 47.42 C113.72 46.23, 72.47 47.04, -0.08 48.85 M1.06 47.74 C2.09 33.12, -0.77 20.58, 1.69 -1.4 M0.05 48.78 C-0.02 29.09, 0.28 9.3, -0.54 0.98" stroke="#000000" stroke-width="1" fill="none"></path></g><g transform="translate(1314.1969356527768 505.88950605135665) rotate(0 67 12.5)"><text x="67" y="18" font-family="Virgil, Segoe UI Emoji" font-size="20px" fill="#000000" text-anchor="middle" style="white-space: pre;" direction="ltr">Item_Fatura</text></g><g stroke-linecap="round"><g transform="translate(1460.7871291097797 522.9190796274802) rotate(0 111.52858277708202 -3.6817133261965864)"><path d="M0.59 -0.01 C37.55 -0.82, 184.52 -4.61, 221.48 -5.65 M-0.55 -1.07 C36.77 -2.13, 186.61 -6.72, 223.61 -7.35" stroke="#000000" stroke-width="1" fill="none"></path></g></g><g stroke-linecap="round" transform="translate(1249.1067696289083 394.5637743971197) rotate(0 72.5 23)"><path d="M73.1 -0.91 C84.56 -1.07, 99.22 1.29, 109.57 3.35 C119.92 5.42, 129.31 8.02, 135.2 11.48 C141.1 14.93, 145.19 20.34, 144.94 24.09 C144.7 27.85, 140.08 30.97, 133.74 34 C127.39 37.03, 117.34 40.21, 106.88 42.3 C96.41 44.39, 82.83 46.48, 70.93 46.52 C59.04 46.56, 45.95 44.62, 35.51 42.55 C25.07 40.48, 14.19 37.56, 8.3 34.12 C2.42 30.67, -0.26 25.88, 0.22 21.9 C0.7 17.91, 5.03 13.27, 11.18 10.19 C17.34 7.12, 26.08 5.02, 37.16 3.43 C48.24 1.85, 70.54 1.01, 77.69 0.68 C84.84 0.36, 80.13 1.03, 80.05 1.47 M38.88 2.07 C48.57 0.41, 63.74 0.75, 75.79 0.97 C87.84 1.2, 100.77 1.68, 111.15 3.44 C121.53 5.2, 132.18 8.25, 138.05 11.54 C143.92 14.82, 147.29 19.22, 146.36 23.15 C145.43 27.08, 139.39 31.71, 132.47 35.14 C125.55 38.56, 115.23 42.1, 104.86 43.71 C94.48 45.31, 82.12 44.88, 70.21 44.77 C58.31 44.66, 43.64 44.87, 33.42 43.02 C23.19 41.17, 14.62 37.05, 8.87 33.66 C3.12 30.27, -1.61 26.5, -1.1 22.68 C-0.59 18.86, 5.1 13.88, 11.92 10.74 C18.75 7.6, 35.19 5.14, 39.84 3.86 C44.49 2.58, 39.24 2.93, 39.81 3.07" stroke="#000000" stroke-width="1" fill="none"></path></g><g transform="translate(1263.1067696289083 405.0637743971197) rotate(0 58.5 12.5)"><text x="58.5" y="18" font-family="Virgil, Segoe UI Emoji" font-size="20px" fill="#000000" text-anchor="middle" style="white-space: pre;" direction="ltr">ID_Fat_ck</text></g><g stroke-linecap="round" transform="translate(1441.0817404074978 384.85771104032483) rotate(0 70.5 24)"><path d="M87.97 -0.13 C98.84 0.49, 111.46 3.02, 119.87 6.13 C128.27 9.24, 135.18 14.65, 138.4 18.53 C141.63 22.42, 142.22 25.81, 139.21 29.45 C136.21 33.09, 128.62 37.52, 120.35 40.35 C112.08 43.18, 100.91 45.31, 89.59 46.42 C78.27 47.53, 63.84 47.79, 52.43 47.01 C41.03 46.23, 29.64 44.54, 21.16 41.75 C12.68 38.97, 4.76 34.34, 1.53 30.29 C-1.7 26.25, -1.41 21.48, 1.79 17.49 C4.99 13.5, 12.21 9.13, 20.73 6.35 C29.25 3.57, 39.92 1.58, 52.92 0.82 C65.91 0.06, 89.7 1.31, 98.7 1.8 C107.7 2.28, 107.38 3.46, 106.92 3.74 M57.43 0.42 C68.25 -0.74, 82.11 -0.25, 93.32 1.17 C104.53 2.58, 117.12 5.75, 124.69 8.92 C132.25 12.09, 136.79 16.16, 138.73 20.19 C140.68 24.22, 139.85 29.6, 136.35 33.1 C132.86 36.59, 126.35 38.65, 117.78 41.16 C109.22 43.66, 96.5 47.2, 84.98 48.13 C73.46 49.05, 60.07 48.25, 48.67 46.72 C37.26 45.19, 24.3 41.89, 16.56 38.95 C8.82 36.01, 4.24 32.89, 2.22 29.07 C0.21 25.26, 0.89 19.78, 4.48 16.05 C8.07 12.32, 15.21 9.07, 23.76 6.68 C32.32 4.3, 50.35 2.89, 55.81 1.74 C61.27 0.59, 55.96 -0.62, 56.53 -0.21" stroke="#000000" stroke-width="1" fill="none"></path></g><g transform="translate(1450.5817404074978 396.35771104032483) rotate(0 61 12.5)"><text x="61" y="18" font-family="Virgil, Segoe UI Emoji" font-size="20px" fill="#000000" text-anchor="middle" style="white-space: pre;" direction="ltr">ID_Cult_ck</text></g><g stroke-linecap="round"><g transform="translate(1319.7249377645844 440.09356463010727) rotate(0 20.696399254534526 25.32264647857629)"><path d="M-0.32 0.02 C6.54 8.65, 34.59 42.18, 41.71 50.68 M1.71 -1.01 C8.39 7.82, 34.17 42.82, 40.92 51.65" stroke="#000000" stroke-width="1" fill="none"></path></g></g><g stroke-linecap="round"><g transform="translate(1507.3764504409005 429.7403875973963) rotate(0 -47.41299510423414 32.73428107690958)"><path d="M-0.78 0.54 C-16.44 11.49, -79.26 55.11, -94.75 65.69 M1.01 -0.22 C-14.76 10.41, -79.99 53.22, -95.84 64.09" stroke="#000000" stroke-width="1" fill="none"></path></g></g><g stroke-linecap="round" transform="translate(1312.6388800324883 584.8035443057317) rotate(0 148.5 35)"><path d="M175.96 1.25 C193.1 1.5, 211.92 3.63, 227.15 5.62 C242.38 7.61, 256.75 9.85, 267.34 13.2 C277.93 16.54, 285.96 21.45, 290.68 25.7 C295.41 29.94, 297.24 34.45, 295.69 38.67 C294.13 42.89, 289.15 47.37, 281.36 51.02 C273.57 54.66, 262.28 57.79, 248.96 60.52 C235.64 63.26, 218.19 65.86, 201.45 67.42 C184.72 68.97, 166.2 69.86, 148.55 69.84 C130.91 69.83, 112.32 68.95, 95.6 67.33 C78.88 65.7, 61.65 62.93, 48.25 60.11 C34.84 57.29, 23.06 54.16, 15.17 50.42 C7.29 46.68, 2.62 41.82, 0.93 37.68 C-0.76 33.54, 0.29 29.67, 5.03 25.6 C9.77 21.54, 18.54 16.85, 29.37 13.31 C40.19 9.77, 54.67 6.6, 69.97 4.37 C85.27 2.14, 101.72 0.59, 121.17 -0.05 C140.63 -0.7, 174.19 -0.09, 186.69 0.5 C199.2 1.09, 196.66 2.83, 196.18 3.48 M101.01 2.07 C116.11 0.34, 137.31 0.89, 155.05 1.07 C172.79 1.25, 191.23 1.58, 207.45 3.15 C223.68 4.73, 239.51 7.59, 252.41 10.54 C265.3 13.49, 277.37 17.15, 284.85 20.86 C292.32 24.56, 296.69 28.63, 297.24 32.78 C297.8 36.93, 294.13 41.76, 288.15 45.78 C282.17 49.79, 272.43 53.43, 261.38 56.87 C250.33 60.3, 237.4 64.41, 221.85 66.38 C206.29 68.34, 185.98 68.09, 168.05 68.68 C150.13 69.26, 131.53 70.75, 114.3 69.87 C97.07 68.99, 79.39 66.12, 64.69 63.4 C50 60.68, 36.35 56.96, 26.13 53.55 C15.91 50.13, 7.67 46.54, 3.36 42.9 C-0.95 39.26, -2.25 35.99, 0.25 31.69 C2.74 27.4, 9.58 21.14, 18.33 17.15 C27.08 13.16, 39.04 10.35, 52.74 7.75 C66.43 5.15, 92.45 2.34, 100.5 1.55 C108.54 0.77, 100.27 2.23, 101.02 3.02" stroke="#000000" stroke-width="1" fill="none"></path></g><g transform="translate(1318.6388800324883 607.3035443057317) rotate(0 142.5 12.5)"><text x="142.5" y="18" font-family="Virgil, Segoe UI Emoji" font-size="20px" fill="#000000" text-anchor="middle" style="white-space: pre;" direction="ltr">quantidade_vendida_ItmFat</text></g><g stroke-linecap="round"><g transform="translate(1423.2568068273795 539.742998476616) rotate(0 25.466463150998493 22.172569446110344)"><path d="M-0.83 -0.39 C7.32 6.96, 41.07 37.29, 49.54 44.74 M0.94 -1.65 C9.39 5.81, 43.76 38.19, 51.76 45.99" stroke="#000000" stroke-width="1" fill="none"></path></g></g><g stroke-linecap="round" transform="translate(968.0400311797865 492.18298194769966) rotate(0 78.29596610517024 23.94174965755559)"><path d="M0.84 -1.07 C40.74 -0.08, 83.5 -0.5, 155.56 -1.12 M0 0.2 C60.7 0.24, 122.5 -0.16, 157.29 -0.14 M156.67 -0.14 C155.61 10.27, 158.13 17.95, 156.92 46.13 M157.41 -0.45 C156.72 13.51, 157.06 27.57, 155.9 48.46 M158.03 47.14 C116.23 45.26, 72.32 46.47, 1.3 47.58 M157.31 47.4 C116.44 46.4, 76.4 46.59, -0.45 47.73 M-1.01 48.72 C-1.54 34.9, -0.69 17.97, -0.72 -0.11 M-0.97 46.92 C0.1 36.69, -0.23 25.65, -0.7 -0.57" stroke="#000000" stroke-width="1" fill="none"></path></g><g transform="translate(1000.8359972849568 503.6247316052553) rotate(0 45.5 12.5)"><text x="45.5" y="18" font-family="Virgil, Segoe UI Emoji" font-size="20px" fill="#000000" text-anchor="middle" style="white-space: pre;" direction="ltr">Incidente</text></g><g stroke-linecap="round" transform="translate(1033.1028533100787 407.18179992769524) rotate(0 72.5 25)"><path d="M66.53 0.4 C77.78 -0.44, 92.15 0.55, 103.2 2.24 C114.24 3.94, 125.88 7.27, 132.82 10.55 C139.76 13.83, 143.89 17.74, 144.86 21.94 C145.84 26.15, 143.8 31.71, 138.68 35.78 C133.55 39.85, 124.1 44.13, 114.12 46.35 C104.13 48.57, 90.81 48.71, 78.78 49.09 C66.75 49.47, 52.78 50.08, 41.94 48.62 C31.1 47.17, 20.69 43.86, 13.72 40.37 C6.76 36.89, 1.31 31.99, 0.14 27.72 C-1.03 23.45, 1.52 18.59, 6.69 14.74 C11.86 10.89, 20.06 7.08, 31.15 4.62 C42.25 2.15, 65.06 0.69, 73.26 -0.05 C81.45 -0.78, 80.37 -0.11, 80.3 0.2 M68.5 0.43 C79.94 -0.25, 94.79 1.81, 105.56 3.58 C116.33 5.35, 126.6 7.61, 133.13 11.05 C139.66 14.48, 144.19 20.22, 144.75 24.2 C145.31 28.18, 141.82 31.12, 136.47 34.92 C131.13 38.72, 122.85 44.56, 112.69 47.01 C102.53 49.46, 87.63 49.54, 75.52 49.62 C63.4 49.7, 50.5 49.14, 39.99 47.49 C29.48 45.85, 19.3 43.46, 12.46 39.76 C5.62 36.06, -0.33 29.64, -1.07 25.29 C-1.81 20.93, 2.15 17.4, 8.01 13.62 C13.86 9.83, 23.95 4.69, 34.06 2.57 C44.17 0.46, 63.05 1.17, 68.7 0.91 C74.34 0.64, 67.77 0.47, 67.91 0.98" stroke="#000000" stroke-width="1" fill="none"></path></g><g transform="translate(1048.6028533100787 419.68179992769524) rotate(0 57 12.5)"><text x="57" y="18" font-family="Virgil, Segoe UI Emoji" font-size="20px" fill="#000000" text-anchor="middle" style="white-space: pre;" direction="ltr">ID_Enc_ck</text></g><g stroke-linecap="round"><g transform="translate(1082.8957477891672 455.6233548630951) rotate(0 -17.420577677546504 17.498730697686923)"><path d="M-0.28 -1.07 C-6.29 4.56, -29.7 28.82, -35.87 34.67 M1.78 0.98 C-4.37 6.72, -30.5 30.41, -36.62 36.07" stroke="#000000" stroke-width="1" fill="none"></path></g></g><g stroke-linecap="round" transform="translate(883.5692180608114 401.50491795349944) rotate(0 72.5 25)"><path d="M64.58 0.63 C75.87 -0.24, 90.71 -0.13, 101.68 1.44 C112.65 3, 123.41 6.66, 130.39 10 C137.37 13.34, 142.16 17.22, 143.56 21.46 C144.96 25.69, 143.58 31.57, 138.78 35.39 C133.98 39.2, 124.53 41.83, 114.75 44.37 C104.97 46.9, 92.04 49.94, 80.1 50.58 C68.17 51.23, 54.06 50.07, 43.13 48.23 C32.19 46.4, 21.69 42.87, 14.5 39.56 C7.31 36.25, 1.46 32.44, -0.03 28.39 C-1.52 24.34, 0.57 19.29, 5.55 15.27 C10.54 11.24, 18.52 6.87, 29.87 4.24 C41.23 1.62, 64.67 0.25, 73.71 -0.48 C82.74 -1.21, 84 -0.75, 84.07 -0.13 M44.91 1.79 C55.59 -0.31, 72.09 -1.4, 84.43 -0.91 C96.78 -0.42, 109.83 1.91, 118.97 4.74 C128.1 7.57, 135.24 12.29, 139.23 16.05 C143.23 19.8, 144.49 23.05, 142.95 27.25 C141.4 31.45, 137.27 37.71, 129.97 41.25 C122.67 44.8, 110.51 46.91, 99.14 48.5 C87.76 50.1, 73.78 51.25, 61.71 50.81 C49.65 50.38, 36.38 48.46, 26.76 45.89 C17.14 43.32, 8.31 39.62, 3.99 35.41 C-0.33 31.19, -0.89 24.91, 0.83 20.59 C2.56 16.26, 6.91 12.41, 14.35 9.45 C21.78 6.49, 39.88 3.84, 45.46 2.84 C51.04 1.85, 47.53 3.39, 47.82 3.48" stroke="#000000" stroke-width="1" fill="none"></path></g><g transform="translate(895.0692180608114 414.00491795349944) rotate(0 61 12.5)"><text x="61" y="18" font-family="Virgil, Segoe UI Emoji" font-size="20px" fill="#000000" text-anchor="middle" style="white-space: pre;" direction="ltr">ID_Cult_ck</text></g><g stroke-linecap="round"><g transform="translate(984.5405906623331 451.7409690146509) rotate(0 29.244861083234753 22.65554555940885)"><path d="M0.89 0.48 C10.67 7.77, 49.17 36.85, 58.59 44.5 M-0.1 -0.31 C9.56 7.04, 47.84 38.14, 57.83 45.62" stroke="#000000" stroke-width="1" fill="none"></path></g></g><g stroke-linecap="round" transform="translate(889.4207057080272 759.4246880810185) rotate(0 61.5 20.5)"><path d="M-1.12 0.34 C34.19 -1.5, 67.44 -0.46, 123.27 -0.94 M0.44 -0.3 C45.65 0.38, 91.11 0.18, 122.06 0.48 M122.91 -1.18 C121.49 10.57, 124.02 23.45, 124.1 40.03 M122.3 -0.83 C122.63 15.6, 123.48 32.27, 123.33 41.12 M123.48 40.49 C90.42 41.24, 60.25 39.13, -1.62 39.83 M122.64 40.04 C96.02 41.61, 71.17 43.03, 0.67 40.98 M-0.6 40.16 C-1.04 31, 0.4 23.55, 0.65 -1.75 M0.65 41.87 C-0.67 29.17, -0.81 16.77, -0.27 -0.66" stroke="#000000" stroke-width="1" fill="none"></path></g><g transform="translate(899.9207057080272 767.4246880810185) rotate(0 51 12.5)"><text x="51" y="18" font-family="Virgil, Segoe UI Emoji" font-size="20px" fill="#000000" text-anchor="middle" style="white-space: pre;" direction="ltr">Plantacao</text></g><g stroke-linecap="round"><g transform="translate(2152.5093897913052 516.0440151832136) rotate(0 79.09953752748027 12.042562447426064)"><path d="M0.55 -0.94 C27.07 3.21, 132.42 19.79, 158.82 23.86 M-0.62 1.19 C25.74 5.56, 131.24 21.18, 157.68 25.02" stroke="#000000" stroke-width="1" fill="none"></path></g></g><g stroke-linecap="round"><g transform="translate(1754.3160757687974 461.6896753159933) rotate(0 3.086699107343975 19.20694077645217)"><path d="M-0.27 -1.18 C0.23 5.06, 3.41 31.48, 4.23 38.32 M1.78 0.82 C2.55 7.14, 6.14 33.38, 6.45 39.59" stroke="#000000" stroke-width="1" fill="none"></path></g></g><g stroke-linecap="round" transform="translate(811.5013014596765 649.3345961089132) rotate(0 72.5 25)"><path d="M60.36 -0.39 C71.4 -1.19, 85.59 0.4, 96.96 1.98 C108.34 3.55, 120.93 5.86, 128.62 9.06 C136.31 12.26, 141.08 17.02, 143.08 21.19 C145.07 25.37, 144.71 30.39, 140.61 34.11 C136.5 37.84, 127.9 40.93, 118.45 43.54 C108.99 46.15, 95.62 49, 83.87 49.75 C72.11 50.5, 59.18 49.53, 47.92 48.04 C36.65 46.55, 23.95 43.95, 16.29 40.8 C8.62 37.64, 3.95 33.26, 1.94 29.11 C-0.07 24.96, 0.05 19.95, 4.24 15.89 C8.44 11.84, 16.44 7.33, 27.13 4.76 C37.81 2.19, 60.22 1.21, 68.35 0.47 C76.49 -0.27, 75.84 -0.11, 75.95 0.34 M71.78 0.72 C83.17 0.36, 96.68 1.18, 107.23 2.99 C117.78 4.8, 128.75 7.74, 135.08 11.59 C141.4 15.43, 145.31 21.77, 145.17 26.05 C145.03 30.32, 140.25 34.04, 134.23 37.24 C128.21 40.44, 119.21 43.08, 109.08 45.25 C98.95 47.42, 85.36 50.11, 73.46 50.26 C61.56 50.41, 48.33 48.24, 37.68 46.15 C27.02 44.06, 15.78 41.34, 9.54 37.72 C3.3 34.11, 0.17 28.44, 0.27 24.44 C0.36 20.44, 4.12 17.13, 10.11 13.72 C16.11 10.32, 25.77 6.16, 36.22 4.02 C46.67 1.88, 66.61 1.48, 72.81 0.89 C79 0.3, 73.63 0.39, 73.38 0.48" stroke="#000000" stroke-width="1" fill="none"></path></g><g transform="translate(823.0013014596765 661.8345961089132) rotate(0 61 12.5)"><text x="61" y="18" font-family="Virgil, Segoe UI Emoji" font-size="20px" fill="#000000" text-anchor="middle" style="white-space: pre;" direction="ltr">ID_Cult_ck</text></g><g stroke-linecap="round" transform="translate(981.7771902091794 645.9227326708165) rotate(0 66.5 25.5)"><path d="M87.2 2.31 C97.46 3.34, 108.65 5.19, 116.03 8.28 C123.4 11.36, 129.39 16.6, 131.47 20.82 C133.54 25.04, 132.13 29.54, 128.48 33.62 C124.82 37.7, 117.64 42.56, 109.51 45.29 C101.39 48.01, 90.5 49.21, 79.72 49.96 C68.93 50.71, 55.4 50.95, 44.81 49.8 C34.23 48.66, 23.37 46.41, 16.22 43.09 C9.06 39.76, 3.99 34.19, 1.87 29.84 C-0.24 25.49, 0.01 20.75, 3.52 16.97 C7.04 13.19, 14.63 10.06, 22.94 7.15 C31.25 4.23, 42.22 0.56, 53.4 -0.51 C64.58 -1.58, 83.71 0.17, 90.02 0.75 C96.33 1.33, 91.65 2.58, 91.28 2.97 M60.82 0.12 C71.49 -0.27, 86.23 1.11, 96.33 2.77 C106.44 4.42, 115.59 6.82, 121.44 10.06 C127.29 13.31, 130.69 17.72, 131.43 22.24 C132.18 26.76, 130.62 33, 125.91 37.19 C121.2 41.38, 112.27 44.96, 103.15 47.38 C94.04 49.8, 82.27 51.39, 71.22 51.69 C60.16 51.99, 46.76 50.9, 36.83 49.16 C26.9 47.41, 17.72 44.83, 11.61 41.23 C5.5 37.63, 0.98 32.21, 0.17 27.57 C-0.64 22.94, 2.12 17.25, 6.76 13.43 C11.39 9.61, 18.81 6.93, 27.97 4.67 C37.13 2.4, 55.94 0.37, 61.73 -0.15 C67.52 -0.66, 62.61 1.35, 62.71 1.57" stroke="#000000" stroke-width="1" fill="none"></path></g><g transform="translate(989.2771902091794 658.9227326708165) rotate(0 59 12.5)"><text x="59" y="18" font-family="Virgil, Segoe UI Emoji" font-size="20px" fill="#000000" text-anchor="middle" style="white-space: pre;" direction="ltr">ID_Prcl_ck</text></g><g stroke-linecap="round"><g transform="translate(942.4806701198883 757.4835198407175) rotate(0 -16.049614050581354 -29.757732132003326)"><path d="M-0.5 -0.32 C-6.1 -9.97, -28.24 -47.74, -33.53 -57.47 M1.44 -1.53 C-3.82 -11.56, -25.7 -49.85, -31.44 -59.2" stroke="#000000" stroke-width="1" fill="none"></path></g></g><g stroke-linecap="round"><g transform="translate(957.5596630244376 758.7699781068839) rotate(0 28.775985104869108 -31.338883220366654)"><path d="M0.76 -0.77 C10.07 -11.29, 46.4 -52.15, 55.76 -62.48 M-0.3 1.44 C9.37 -9.46, 48.45 -53.08, 57.85 -64.12" stroke="#000000" stroke-width="1" fill="none"></path></g></g><g stroke-linecap="round" transform="translate(882.5791367836306 933.0761645434128) rotate(0 79 25.5)"><path d="M1.53 1.3 C34.06 1.04, 69.04 -0.2, 159.2 1.87 M0.7 0.97 C54.75 2.22, 108.91 1.19, 158.57 0.21 M159.82 0.99 C159.22 13.12, 158.67 23.42, 159.5 49.9 M158.51 -0.92 C158.44 16.53, 157.97 32.69, 158.9 50.87 M158.25 50.71 C113.43 51.69, 66.12 49.43, 1.86 50.03 M158.48 51.08 C118.94 50.03, 79.77 50.47, 0.89 50.11 M-0.2 51.05 C0.5 32.05, 0.37 11.8, 0.32 0.47 M-0.11 51.96 C-0.65 30.6, 0.01 11.2, 0.57 -0.66" stroke="#000000" stroke-width="1" fill="none"></path></g><g transform="translate(899.0791367836306 946.0761645434128) rotate(0 62.5 12.5)"><text x="62.5" y="18" font-family="Virgil, Segoe UI Emoji" font-size="20px" fill="#000000" text-anchor="middle" style="white-space: pre;" direction="ltr">Tipo_Cliente</text></g><g stroke-linecap="round" transform="translate(828.8644143730313 863.9129677454305) rotate(0 73.5 17.5)"><path d="M108.28 2.48 C119.17 3.62, 129.73 6.72, 136.23 9.06 C142.73 11.39, 146.86 13.71, 147.28 16.49 C147.71 19.28, 144.49 23.1, 138.79 25.78 C133.09 28.46, 123.45 31.01, 113.07 32.58 C102.69 34.14, 88.79 35.22, 76.51 35.14 C64.23 35.07, 50.31 33.63, 39.4 32.12 C28.48 30.61, 17.47 28.33, 11.02 26.08 C4.57 23.83, 1.29 21.42, 0.69 18.64 C0.08 15.85, 1.72 12.06, 7.38 9.36 C13.04 6.67, 24.06 4.12, 34.63 2.47 C45.21 0.83, 56.31 -0.85, 70.81 -0.5 C85.32 -0.15, 111.25 3.32, 121.66 4.59 C132.06 5.85, 133.78 6.92, 133.23 7.1 M68.26 0.65 C79.65 0.58, 94.39 1.6, 105.17 2.82 C115.95 4.05, 125.98 5.84, 132.96 8 C139.95 10.15, 145.77 12.84, 147.08 15.77 C148.4 18.7, 146.31 23.07, 140.86 25.59 C135.42 28.12, 124.71 29.46, 114.43 30.93 C104.15 32.39, 91.09 34.08, 79.18 34.4 C67.28 34.71, 54.1 34.23, 43.02 32.83 C31.95 31.43, 20.02 28.3, 12.73 26.01 C5.43 23.73, 0.44 21.82, -0.74 19.1 C-1.93 16.39, 0.34 12.59, 5.6 9.73 C10.87 6.87, 20.69 3.72, 30.86 1.94 C41.04 0.17, 60.71 -0.86, 66.66 -0.93 C72.6 -0.99, 66.27 1.28, 66.54 1.55" stroke="#000000" stroke-width="1" fill="none"></path></g><g transform="translate(832.8644143730313 868.9129677454305) rotate(0 68.5 12.5)"><text x="68.5" y="18" font-family="Virgil, Segoe UI Emoji" font-size="20px" fill="#000000" text-anchor="middle" style="white-space: pre;" direction="ltr">ID_TpClt_pk</text></g><g stroke-linecap="round"><g transform="translate(902.0996078920657 897.7354302030182) rotate(0 23.15641111976349 18.335530895580916)"><path d="M-0.53 -0.73 C7.21 5.32, 39 29.9, 46.84 36.17 M1.4 1.51 C8.99 7.71, 38.75 31.26, 46.16 37.4" stroke="#000000" stroke-width="1" fill="none"></path></g></g><g stroke-linecap="round" transform="translate(457.92389123666555 963.2524095873403) rotate(0 51 25.5)"><path d="M0.57 1.59 C32.03 0.03, 66.13 0.81, 103.92 1.27 M-0.37 -0.21 C30.37 -0.75, 59.29 0.75, 101.33 -0.27 M102.82 0.85 C100.65 15.77, 103.68 29.26, 103.27 50.6 M102.14 0.34 C101.59 16.18, 102.7 31.2, 102.98 50.31 M100.85 52.85 C63.03 49.12, 22.48 49.7, -1.57 50.49 M101.47 50.63 C77.13 49.95, 53.15 49.91, -0.16 51.34 M1.39 51.37 C-0.28 33.2, -0.21 16.11, -1.02 -1.82 M0.72 51.43 C-1.02 33.87, -0.25 14.9, -0.17 0.16" stroke="#000000" stroke-width="1" fill="none"></path></g><g transform="translate(475.42389123666555 976.2524095873403) rotate(0 33.5 12.5)"><text x="33.5" y="18" font-family="Virgil, Segoe UI Emoji" font-size="20px" fill="#000000" text-anchor="middle" style="white-space: pre;" direction="ltr">Cliente</text></g><g stroke-linecap="round"><g transform="translate(560.9814619452895 977.9010126780915) rotate(0 161.0584021458312 -10.883133524052198)"><path d="M0.92 -0.53 C54.69 -4.62, 268.87 -19.88, 322.18 -23.57 M-0.06 1.81 C53.66 -2.16, 268.37 -17.64, 321.66 -22.04" stroke="#000000" stroke-width="1" fill="none"></path></g></g><g stroke-linecap="round" transform="translate(555.9142953932743 1084.2284618401968) rotate(0 85 23.5)"><path d="M53.68 1.29 C64.72 -0.24, 79.95 0.38, 92.94 0.68 C105.92 0.98, 120.48 1.03, 131.6 3.1 C142.72 5.18, 153.12 9.79, 159.64 13.14 C166.15 16.5, 170.49 19.79, 170.68 23.23 C170.87 26.67, 166.84 30.41, 160.78 33.78 C154.73 37.15, 144.99 41.18, 134.32 43.44 C123.65 45.7, 109.71 47.04, 96.77 47.36 C83.83 47.67, 68.99 46.6, 56.7 45.32 C44.42 44.03, 32.11 42.39, 23.06 39.64 C14.01 36.9, 5.84 32.29, 2.39 28.84 C-1.07 25.39, -0.59 22.29, 2.33 18.93 C5.26 15.56, 10.38 11.49, 19.95 8.65 C29.52 5.81, 51.76 3.16, 59.75 1.87 C67.73 0.59, 67.4 0.85, 67.85 0.95 M118.35 0.92 C130.75 2.16, 144.7 7.54, 153.32 10.43 C161.94 13.31, 168.17 14.98, 170.08 18.25 C171.99 21.52, 168.75 26.33, 164.79 30.02 C160.83 33.71, 155.17 37.96, 146.32 40.39 C137.48 42.82, 124.67 43.5, 111.72 44.59 C98.77 45.67, 81.75 47.34, 68.6 46.91 C55.46 46.47, 42.95 44.5, 32.87 41.98 C22.79 39.46, 13.39 35.21, 8.11 31.77 C2.83 28.33, 0.63 24.74, 1.18 21.31 C1.74 17.89, 4.66 14.43, 11.42 11.22 C18.19 8, 30.19 4.12, 41.79 2.04 C53.39 -0.04, 68.04 -1.46, 81.03 -1.28 C94.02 -1.11, 113.38 2.34, 119.72 3.09 C126.06 3.84, 119.85 2.91, 119.07 3.21" stroke="#000000" stroke-width="1" fill="none"></path></g><g transform="translate(564.4142953932743 1095.2284618401968) rotate(0 76.5 12.5)"><text x="76.5" y="18" font-family="Virgil, Segoe UI Emoji" font-size="20px" fill="#000000" text-anchor="middle" style="white-space: pre;" direction="ltr">ID_Tp_Clt_fk</text></g><g stroke-linecap="round"><g transform="translate(540.0484216238092 1014.8522002005861) rotate(0 22.730960437335753 36.41437875761403)"><path d="M0.98 0.49 C8.74 12.75, 37.95 61.26, 45.43 73.13 M0.04 -0.31 C7.79 11.63, 37.19 59.06, 44.78 71.2" stroke="#000000" stroke-width="1" fill="none"></path></g></g><g stroke-linecap="round" transform="translate(305.617969007012 1085.386653376018) rotate(0 94 22.5)"><path d="M88.98 0.83 C101.75 0.57, 116.25 1.2, 128.72 2.34 C141.19 3.48, 154.46 5.31, 163.81 7.67 C173.15 10.03, 180.97 13.36, 184.81 16.5 C188.66 19.64, 189.32 23.43, 186.87 26.51 C184.43 29.6, 178.03 32.32, 170.17 35.02 C162.31 37.72, 151.34 41, 139.72 42.71 C128.09 44.42, 114.12 45.22, 100.43 45.27 C86.75 45.33, 70.18 44.19, 57.61 43.03 C45.04 41.87, 34.12 40.69, 25.02 38.3 C15.92 35.92, 7.04 32.06, 2.99 28.71 C-1.05 25.37, -1.64 21.32, 0.75 18.23 C3.13 15.14, 9.25 12.86, 17.3 10.17 C25.35 7.48, 35.03 3.65, 49.02 2.08 C63.01 0.52, 90.5 1.04, 101.25 0.77 C111.99 0.49, 113.54 0.14, 113.51 0.45 M49.24 3.74 C60.1 2.28, 77.33 1.4, 91.07 0.92 C104.82 0.45, 119.18 -0.13, 131.71 0.9 C144.24 1.93, 157.27 4.59, 166.24 7.11 C175.22 9.62, 182.34 12.87, 185.58 15.98 C188.83 19.08, 188.23 22.36, 185.72 25.75 C183.2 29.14, 178.34 33.42, 170.47 36.33 C162.59 39.24, 150.8 41.53, 138.49 43.2 C126.17 44.87, 110.59 46.21, 96.57 46.34 C82.55 46.48, 66.84 45.34, 54.37 44 C41.91 42.66, 30.29 40.84, 21.77 38.3 C13.26 35.76, 6.63 32.21, 3.26 28.74 C-0.11 25.27, -1.04 20.84, 1.56 17.46 C4.16 14.07, 10.83 10.73, 18.87 8.42 C26.9 6.1, 44.54 4.65, 49.76 3.56 C54.99 2.47, 49.22 1.69, 50.22 1.88" stroke="#000000" stroke-width="1" fill="none"></path></g><g transform="translate(310.617969007012 1095.386653376018) rotate(0 89 12.5)"><text x="89" y="18" font-family="Virgil, Segoe UI Emoji" font-size="20px" fill="#000000" text-anchor="middle" style="white-space: pre;" direction="ltr">codigo_interno_pk</text></g><g stroke-linecap="round"><g transform="translate(418.739639958025 1086.9022308076865) rotate(0 37.23249548737866 -36.490798398264474)"><path d="M-0.29 0.37 C12.24 -11.78, 62.02 -60.84, 74.76 -73.35 M1.75 -0.48 C14.15 -12.37, 61.31 -59.48, 73.69 -71.72" stroke="#000000" stroke-width="1" fill="none"></path></g></g><g stroke-linecap="round" transform="translate(621.8994406914281 788.4713064013749) rotate(0 77 19.5)"><path d="M-0.61 0.56 C46.78 2.46, 93.33 1.14, 153.84 -0.31 M0.13 -0.6 C56.13 1.03, 114.26 -0.46, 154.75 0.71 M152.18 -0.76 C153.75 9.91, 154.76 18.34, 155.38 38.21 M154.38 -0.08 C153.35 11.04, 152.74 19.17, 153.93 38.48 M155.21 39.48 C106.91 37.09, 56.67 39.45, -1.62 40.47 M154.93 39.4 C95.39 38.33, 35.2 37.23, 0.31 39.16 M-0.26 39.59 C1.38 30.12, 1.33 24.56, 1.57 1.64 M0.97 39.53 C1.06 31.05, 0 21, 0.56 -0.7" stroke="#000000" stroke-width="1" fill="none"></path></g><g transform="translate(633.3994406914281 795.4713064013749) rotate(0 65.5 12.5)"><text x="65.5" y="18" font-family="Virgil, Segoe UI Emoji" font-size="20px" fill="#000000" text-anchor="middle" style="white-space: pre;" direction="ltr">Tipo_cultura</text></g><g stroke-linecap="round"><g transform="translate(1121.6479970130638 540.222050851485) rotate(0 -277.23790966076274 248.20841891929783)"><path d="M-0.42 0.91 C-9.42 77.5, 37.83 383.05, -55.16 459.97 C-148.15 536.9, -474.5 462.06, -558.36 462.44 M1.57 0.34 C-7.46 77.06, 37.63 384.04, -55.83 461.23 C-149.29 538.43, -475.47 463.21, -559.19 463.51" stroke="#000000" stroke-width="1" fill="none"></path></g></g><g stroke-linecap="round" transform="translate(570.9054561112401 860.5239882198289) rotate(0 90 23.5)"><path d="M131.86 1.93 C144.29 3.07, 155.73 6.86, 163.77 9.82 C171.81 12.78, 178.26 16.03, 180.08 19.69 C181.9 23.36, 179.59 28.23, 174.69 31.82 C169.79 35.41, 161.16 38.93, 150.67 41.23 C140.18 43.52, 125.41 44.62, 111.72 45.59 C98.04 46.55, 82.09 47.67, 68.57 47.02 C55.06 46.36, 41.15 44.32, 30.64 41.65 C20.12 38.98, 10.51 34.45, 5.49 30.99 C0.46 27.53, -1.14 24.32, 0.49 20.9 C2.12 17.48, 7.17 13.5, 15.26 10.46 C23.35 7.43, 36.71 4.56, 49.02 2.7 C61.33 0.85, 74.03 -0.68, 89.12 -0.67 C104.2 -0.66, 130.44 1.8, 139.51 2.76 C148.58 3.73, 144.55 4.69, 143.53 5.12 M57.08 1.58 C69.22 -0.37, 86.98 -1.44, 100.97 -1.07 C114.95 -0.69, 129.74 1.39, 141.01 3.81 C152.28 6.23, 162.17 10.35, 168.61 13.45 C175.04 16.55, 179.58 18.89, 179.62 22.4 C179.66 25.9, 175.2 31.23, 168.87 34.48 C162.54 37.73, 153.09 39.92, 141.64 41.89 C130.18 43.87, 113.91 45.49, 100.14 46.34 C86.36 47.19, 71.66 48.01, 58.96 46.98 C46.27 45.95, 33.14 43.34, 23.98 40.16 C14.82 36.99, 7.68 31.76, 4.02 27.93 C0.35 24.1, -0.98 20.73, 1.98 17.19 C4.95 13.65, 12.41 9.39, 21.78 6.71 C31.16 4.03, 52.2 1.78, 58.25 1.11 C64.3 0.43, 57.76 2.19, 58.09 2.67" stroke="#000000" stroke-width="1" fill="none"></path></g><g transform="translate(578.9054561112401 871.5239882198289) rotate(0 82 12.5)"><text x="82" y="18" font-family="Virgil, Segoe UI Emoji" font-size="20px" fill="#000000" text-anchor="middle" style="white-space: pre;" direction="ltr">ID_Tp_Cult_pk</text></g><g stroke-linecap="round"><g transform="translate(695.3143917134057 830.4011990826172) rotate(0 0.9752431985411909 15.043489213390444)"><path d="M0.88 -0.74 C0.99 4.49, -0.26 25.48, -0.12 30.83 M-0.11 1.48 C0.43 6.38, 1.83 24.16, 2.08 28.81" stroke="#000000" stroke-width="1" fill="none"></path></g></g><g stroke-linecap="round" transform="translate(607.9841031589885 577.3249274495691) rotate(0 47.5 21)"><path d="M-1.4 -1.87 C30.19 -0.43, 64.95 0.99, 93.91 1.4 M0.15 0.43 C20.03 -0.54, 40.35 -1.38, 94.17 -0.65 M95.98 -0.6 C96.15 14.16, 94.86 29.84, 94.79 41.53 M95.22 -0.57 C94.11 11.92, 95.43 23.07, 95.34 42.65 M93.21 40.49 C60.9 39.86, 29.78 42.2, 1.49 42.57 M94.95 42.02 C68.27 40.77, 40.5 41.82, -0.99 42.89 M0.92 42.9 C-1.86 28.08, -0.41 16.72, 1.32 0.04 M-0.58 42.66 C0.48 29.45, 0.35 18.49, -0.8 0.73" stroke="#000000" stroke-width="1" fill="none"></path></g><g transform="translate(617.4841031589885 585.8249274495691) rotate(0 38 12.5)"><text x="38" y="18" font-family="Virgil, Segoe UI Emoji" font-size="20px" fill="#000000" text-anchor="middle" style="white-space: pre;" direction="ltr">Cultura</text></g><g stroke-linecap="round"><g transform="translate(658.1910042716396 618.8299563814569) rotate(0 17.744556075948502 84.22012598995204)"><path d="M-0.59 -0.09 C5.24 28.31, 29.99 141.5, 36.08 169.62 M1.3 -1.18 C6.84 26.9, 29.27 139.18, 34.87 167.64" stroke="#000000" stroke-width="1" fill="none"></path></g></g><g stroke-linecap="round"><g transform="translate(690.5277118673984 618.8299563814569) rotate(0 98.8345762254821 76.73766452869964)"><path d="M0.65 0.94 C33.63 26.33, 165.26 126.57, 198.14 151.52 M-0.47 0.39 C32.4 26.05, 164.59 127.89, 197.57 153.09" stroke="#000000" stroke-width="1" fill="none"></path></g></g><g stroke-linecap="round"><g transform="translate(703.0794371455612 595.3976584480155) rotate(0 399.26465273610796 123.63943786877849)"><path d="M0.76 -0.48 C90.36 11.12, 405.13 27.5, 537.74 68.84 C670.36 110.18, 753.17 217.97, 796.43 247.57 M-0.31 -1.78 C89.15 9.58, 403.68 25.53, 536.87 67.34 C670.06 109.15, 755.39 219.1, 798.84 249.06" stroke="#000000" stroke-width="1" fill="none"></path></g></g><g stroke-linecap="round" transform="translate(464.20973641505907 648.043863680531) rotate(0 90 23.5)"><path d="M72.6 -0.22 C85.58 -0.95, 103.79 0.33, 117.29 1.66 C130.8 2.99, 144 5.4, 153.64 7.76 C163.28 10.12, 170.97 12.61, 175.15 15.84 C179.33 19.06, 181 23.4, 178.73 27.1 C176.47 30.8, 170.21 35.17, 161.57 38.04 C152.94 40.91, 139.71 42.89, 126.94 44.33 C114.18 45.76, 98.7 46.63, 84.98 46.65 C71.25 46.66, 56.6 46.33, 44.58 44.41 C32.57 42.49, 20.2 38.27, 12.91 35.14 C5.63 32.01, 1.82 29.02, 0.87 25.64 C-0.08 22.26, 1.77 18.36, 7.22 14.87 C12.67 11.37, 21.63 7.09, 33.58 4.69 C45.53 2.28, 70.74 1.19, 78.9 0.44 C87.07 -0.31, 82.4 -0.09, 82.57 0.19 M74.19 -0.16 C87.28 -0.72, 105.79 0.73, 119 2.17 C132.22 3.62, 143.8 6.09, 153.5 8.51 C163.19 10.92, 172.94 13.54, 177.17 16.68 C181.4 19.81, 181.58 23.78, 178.86 27.32 C176.14 30.87, 169.67 34.83, 160.87 37.93 C152.07 41.04, 138.73 44.63, 126.05 45.96 C113.37 47.29, 98.6 46.2, 84.81 45.9 C71.01 45.6, 55.4 46.02, 43.29 44.16 C31.17 42.3, 19.3 37.84, 12.12 34.73 C4.94 31.62, 0.71 29.05, 0.22 25.48 C-0.27 21.91, 3.46 16.88, 9.19 13.32 C14.93 9.76, 23.75 6.39, 34.65 4.11 C45.55 1.84, 67.85 0.46, 74.6 -0.31 C81.35 -1.07, 74.95 -1.08, 75.16 -0.47" stroke="#000000" stroke-width="1" fill="none"></path></g><g transform="translate(472.20973641505907 659.043863680531) rotate(0 82 12.5)"><text x="82" y="18" font-family="Virgil, Segoe UI Emoji" font-size="20px" fill="#000000" text-anchor="middle" style="white-space: pre;" direction="ltr">ID_Tp_Cult_fk</text></g><g stroke-linecap="round" transform="translate(728.1819421573036 502.4347493400171) rotate(0 90 23.5)"><path d="M67.54 0.25 C79.89 -0.97, 96.77 0.35, 110.28 1.36 C123.79 2.37, 138.11 4.21, 148.6 6.31 C159.09 8.42, 168.16 10.77, 173.23 13.99 C178.3 17.22, 180.57 21.87, 179.04 25.68 C177.52 29.49, 171.67 33.62, 164.08 36.85 C156.49 40.08, 145.77 43.22, 133.52 45.06 C121.27 46.89, 104.75 47.96, 90.6 47.85 C76.44 47.74, 60.97 46.21, 48.6 44.41 C36.23 42.62, 24.51 40.07, 16.39 37.08 C8.26 34.1, 1.6 30.26, -0.14 26.5 C-1.88 22.74, 1.01 17.77, 5.94 14.52 C10.88 11.28, 17.47 9.44, 29.46 7.02 C41.46 4.61, 67.99 1.01, 77.91 0.04 C87.83 -0.93, 88.75 0.73, 88.96 1.19 M131.15 2.32 C143.51 3.58, 154.55 6.2, 162.58 9.08 C170.61 11.95, 177.51 16.11, 179.34 19.59 C181.17 23.06, 178.37 26.33, 173.57 29.94 C168.76 33.55, 160.72 38.78, 150.52 41.24 C140.32 43.7, 125.64 43.95, 112.37 44.68 C99.1 45.41, 84.21 46, 70.9 45.61 C57.59 45.21, 43.17 44.65, 32.51 42.31 C21.84 39.98, 12.14 35.31, 6.9 31.6 C1.66 27.88, -0.1 23.46, 1.07 20.02 C2.23 16.58, 6.27 13.71, 13.89 10.98 C21.52 8.24, 34.37 5.31, 46.82 3.62 C59.26 1.93, 74.57 1.04, 88.55 0.85 C102.53 0.65, 123.91 1.98, 130.69 2.44 C137.47 2.89, 129.82 3.29, 129.2 3.58" stroke="#000000" stroke-width="1" fill="none"></path></g><g transform="translate(757.1819421573036 513.4347493400171) rotate(0 61 12.5)"><text x="61" y="18" font-family="Virgil, Segoe UI Emoji" font-size="20px" fill="#000000" text-anchor="middle" style="white-space: pre;" direction="ltr">ID_Cult_pk</text></g><g stroke-linecap="round"><g transform="translate(737.1143033051571 534.4212054457832) rotate(0 -24.97385868518008 21.898811348610906)"><path d="M-0.01 0.71 C-8.13 7.8, -41.16 35.32, -49.35 42.45 M-1.47 0.03 C-9.64 7.29, -41.95 36.86, -49.94 43.77" stroke="#000000" stroke-width="1" fill="none"></path></g></g><g stroke-linecap="round"><g transform="translate(578.1057223038911 648.7644772954599) rotate(0 22.274676136795094 -14.961608696933155)"><path d="M-0.11 -0.87 C7.54 -5.69, 38.23 -24.28, 46.17 -29.23 M-1.62 1.29 C5.81 -3.9, 36.91 -26.03, 45.08 -31.21" stroke="#000000" stroke-width="1" fill="none"></path></g></g><g stroke-linecap="round"><g transform="translate(489.89166942752036 400.14601736497923) rotate(0 82.30657097383504 87.33637513985033)"><path d="M-0.4 -0.57 C26.92 28.73, 137.28 145.95, 165.01 175.24 M1.59 1.75 C28.63 30.77, 136.6 145.06, 163.93 173.66" stroke="#000000" stroke-width="1" fill="none"></path></g></g><g stroke-linecap="round" transform="translate(382.69484567901975 355.1479684452138) rotate(0 88 22)"><path d="M-0.13 -0.85 C55.68 0.04, 111.21 0.09, 176 0.49 M-0.2 -0.16 C46.6 0.91, 93.59 0.07, 176 -0.08 M175.53 -0.13 C175.2 14.2, 176.24 26.4, 174.05 42.57 M175.62 0.81 C175.35 16.99, 176.85 35.1, 175.56 44.8 M174.25 42.66 C121.7 43.33, 70.12 43.45, 1.36 42.24 M176.27 44.7 C119.1 41.7, 61.61 41.77, 0.59 43.16 M-0.27 45.2 C-0.18 31.87, -1.66 18.59, 1.24 1.88 M-0.78 43.55 C0.39 35.36, -1.19 26.06, 0.95 -0.04" stroke="#000000" stroke-width="1" fill="none"></path></g><g transform="translate(387.19484567901975 364.6479684452138) rotate(0 83 12.5)"><text x="83" y="18" font-family="Virgil, Segoe UI Emoji" font-size="20px" fill="#000000" text-anchor="middle" style="white-space: pre;" direction="ltr">Item_Encomenda</text></g><g stroke-linecap="round" transform="translate(588.0442914699426 400.98861579375347) rotate(0 90 23.5)"><path d="M50.56 2 C61.93 0.43, 79.15 0.76, 92.87 0.86 C106.59 0.96, 120.78 1, 132.86 2.58 C144.94 4.15, 157.62 7.29, 165.36 10.31 C173.09 13.33, 178 17.16, 179.28 20.71 C180.55 24.27, 178.08 28.09, 173.01 31.66 C167.93 35.23, 159.28 39.72, 148.82 42.11 C138.36 44.5, 123.98 45.35, 110.26 46.01 C96.54 46.66, 80.21 46.84, 66.49 46.06 C52.78 45.29, 38.09 43.93, 28 41.36 C17.9 38.78, 10.62 33.96, 5.95 30.59 C1.27 27.23, -1.8 24.61, -0.04 21.17 C1.73 17.74, 7.06 13.28, 16.53 9.99 C26.01 6.69, 49.09 2.85, 56.82 1.4 C64.54 -0.05, 62.41 0.9, 62.88 1.3 M72.09 -0.61 C84.94 -1.46, 103.21 0.37, 116.65 1.5 C130.1 2.63, 142.99 3.57, 152.77 6.17 C162.54 8.77, 171.14 13.39, 175.32 17.09 C179.5 20.8, 180.13 25.13, 177.87 28.39 C175.62 31.64, 170.38 34.02, 161.8 36.61 C153.22 39.19, 139.2 42.32, 126.4 43.9 C113.59 45.47, 98.7 45.96, 84.96 46.03 C71.22 46.11, 56.16 45.96, 43.98 44.34 C31.79 42.72, 19.39 39.71, 11.85 36.33 C4.31 32.94, -0.6 27.9, -1.26 24.04 C-1.91 20.19, 2.04 16.18, 7.91 13.19 C13.78 10.21, 22.91 8.19, 33.98 6.12 C45.06 4.04, 67.55 1.51, 74.35 0.73 C81.15 -0.04, 74.76 1.06, 74.8 1.46" stroke="#000000" stroke-width="1" fill="none"></path></g><g transform="translate(617.0442914699426 411.9886157937535) rotate(0 61 12.5)"><text x="61" y="18" font-family="Virgil, Segoe UI Emoji" font-size="20px" fill="#000000" text-anchor="middle" style="white-space: pre;" direction="ltr">ID_Cult_ck</text></g><g stroke-linecap="round"><g transform="translate(608.589805426589 408.18575869994515) rotate(0 -27.210004412957602 -10.155817232103274)"><path d="M0.07 0.38 C-8.87 -3.09, -44.47 -17.05, -53.26 -20.69 M-1.35 -0.47 C-10.53 -3.76, -45.82 -15.87, -54.49 -19.23" stroke="#000000" stroke-width="1" fill="none"></path></g></g><g stroke-linecap="round" transform="translate(601.2206222454862 311.4345975089842) rotate(0 90 23.5)"><path d="M49.7 3.27 C61.06 1.36, 78.78 0.56, 92.9 0.49 C107.01 0.42, 122.43 1.3, 134.39 2.85 C146.36 4.4, 157.27 6.69, 164.69 9.79 C172.11 12.88, 177.39 17.6, 178.91 21.4 C180.42 25.2, 178.98 29.28, 173.77 32.58 C168.56 35.88, 158.35 38.9, 147.65 41.22 C136.96 43.54, 122.99 45.53, 109.59 46.5 C96.19 47.48, 80.81 48, 67.24 47.07 C53.67 46.15, 38.56 43.59, 28.17 40.96 C17.79 38.33, 9.57 34.84, 4.93 31.28 C0.3 27.72, -1.76 23.29, 0.36 19.62 C2.49 15.95, 8.63 12.25, 17.7 9.24 C26.76 6.23, 47.47 2.76, 54.75 1.56 C62.04 0.37, 60.82 1.69, 61.41 2.08 M90.34 -0.58 C103.57 -0.74, 118.01 1.5, 130.36 3.43 C142.7 5.36, 156.4 7.96, 164.4 11.01 C172.4 14.06, 176.64 18.33, 178.35 21.73 C180.05 25.12, 179.6 28.24, 174.63 31.37 C169.67 34.5, 159.08 38.23, 148.58 40.49 C138.09 42.76, 124.97 43.81, 111.67 44.95 C98.36 46.1, 82.26 47.97, 68.77 47.37 C55.27 46.78, 41.25 44.01, 30.7 41.39 C20.16 38.76, 10.3 35.12, 5.5 31.62 C0.7 28.11, 0.21 24.11, 1.91 20.35 C3.6 16.59, 8.2 11.99, 15.67 9.05 C23.15 6.1, 34.25 4.32, 46.75 2.69 C59.25 1.06, 83.65 -0.48, 90.68 -0.76 C97.7 -1.04, 89.08 0.59, 88.91 0.98" stroke="#000000" stroke-width="1" fill="none"></path></g><g transform="translate(634.2206222454862 322.4345975089842) rotate(0 57 12.5)"><text x="57" y="18" font-family="Virgil, Segoe UI Emoji" font-size="20px" fill="#000000" text-anchor="middle" style="white-space: pre;" direction="ltr">ID_Enc_pk</text></g><g stroke-linecap="round"><g transform="translate(557.6712732537083 366.2003633266779) rotate(0 28.386189948087903 -9.713688363128242)"><path d="M-0.73 -0.24 C8.96 -3.62, 47.87 -16.19, 57.5 -19.18 M1.09 -1.42 C10.62 -4.11, 46.54 -14.73, 56.26 -17.87" stroke="#000000" stroke-width="1" fill="none"></path></g></g><g stroke-linecap="round" transform="translate(89.82584480769447 312.57113924942917) rotate(0 71 25.5)"><path d="M1.33 0.25 C52.05 0.67, 106.6 -2.98, 143.12 -1.64 M-0.93 0.88 C49.5 -0.49, 99.83 -1.48, 141.33 -0.92 M140.34 -0.08 C142.67 17.23, 143.38 29.56, 141.63 51.79 M142.45 -0.61 C141.45 13.96, 142.36 27.97, 142.34 51.3 M142.04 51.84 C100.7 48.57, 60.5 49.23, -1.06 52.92 M141.68 50.07 C104.5 49.07, 67.53 49.26, -0.29 51.09 M0.95 50.13 C0.74 36.95, 1.34 21.01, 1.26 -1.15 M0.6 50.3 C0.55 33.1, 1.19 13.62, 0.72 0.58" stroke="#000000" stroke-width="1" fill="none"></path></g><g transform="translate(125.32584480769447 325.57113924942917) rotate(0 35.5 12.5)"><text x="35.5" y="18" font-family="Virgil, Segoe UI Emoji" font-size="20px" fill="#000000" text-anchor="middle" style="white-space: pre;" direction="ltr">Fatura</text></g><g stroke-linecap="round" transform="translate(41.61140480644792 394.18422313388044) rotate(0 74 23.5)"><path d="M50.94 0.15 C61.71 -1.45, 77.74 -0.78, 90.01 0.35 C102.28 1.47, 115.41 4.32, 124.57 6.87 C133.73 9.42, 141.29 12.08, 144.95 15.66 C148.61 19.23, 149.21 24.22, 146.53 28.33 C143.86 32.44, 137.38 37.55, 128.89 40.32 C120.41 43.09, 107.32 44.07, 95.62 44.97 C83.92 45.86, 70.66 46.23, 58.72 45.68 C46.78 45.14, 33.11 44.07, 23.98 41.68 C14.85 39.29, 7.76 35.11, 3.94 31.35 C0.12 27.6, -1.62 23.01, 1.07 19.15 C3.76 15.29, 9.78 11.41, 20.07 8.2 C30.37 4.98, 53.67 1.17, 62.83 -0.13 C72 -1.44, 74.75 -0.01, 75.06 0.38 M89.91 -0.72 C101.52 -0.51, 114.22 2.28, 123.52 5.11 C132.82 7.94, 142.08 12.22, 145.72 16.24 C149.35 20.26, 148.25 25.22, 145.32 29.24 C142.38 33.26, 136 37.58, 128.12 40.36 C120.24 43.14, 109.75 45.04, 98.03 45.92 C86.31 46.8, 70.19 46.68, 57.79 45.63 C45.39 44.58, 32.68 42.06, 23.63 39.62 C14.58 37.18, 7.01 34.43, 3.5 30.97 C0 27.52, 0.21 22.98, 2.6 18.9 C4.98 14.83, 9.64 9.25, 17.79 6.53 C25.94 3.8, 39.82 3.3, 51.5 2.55 C63.18 1.79, 81.52 2.21, 87.86 1.98 C94.2 1.75, 89.49 0.99, 89.56 1.18" stroke="#000000" stroke-width="1" fill="none"></path></g><g transform="translate(57.11140480644792 405.18422313388044) rotate(0 58.5 12.5)"><text x="58.5" y="18" font-family="Virgil, Segoe UI Emoji" font-size="20px" fill="#000000" text-anchor="middle" style="white-space: pre;" direction="ltr">ID_Fat_pk</text></g><g stroke-linecap="round"><g transform="translate(208.99698629024329 363.33437563444136) rotate(0 138.72577867593193 300.3424630028695)"><path d="M-0.23 -1.03 C45.79 99.08, 230.8 499.99, 277.06 600.37 M-1.8 1.04 C44.49 101.35, 232.91 502.04, 279.26 601.72" stroke="#000000" stroke-width="1" fill="none"></path></g></g><g stroke-linecap="round"><g transform="translate(231.52403971590502 330.7237601056734) rotate(0 535.4995133373311 77.1980928619114)"><path d="M0.78 -0.2 C128.45 -3.93, 587.98 -54.13, 766 -23.04 C944.02 8.05, 1018.4 151.49, 1068.89 186.32 M-0.27 -1.35 C127.25 -4.88, 586.42 -53.37, 765.01 -21.88 C943.61 9.6, 1020.67 152.77, 1071.27 187.54" stroke="#000000" stroke-width="1" fill="none"></path></g></g><g stroke-linecap="round"><g transform="translate(145.27750059569235 362.97688996309) rotate(0 -9.662999853030158 14.230860653882942)"><path d="M0.45 1.06 C-2.62 5.61, -16.03 22.26, -19.44 26.74 M-0.77 0.57 C-3.82 5.31, -16.5 23.68, -19.78 27.89" stroke="#000000" stroke-width="1" fill="none"></path></g></g><g stroke-linecap="round" transform="translate(170.45060272501735 138.7070318674691) rotate(0 70.9424858666606 17.5)"><path d="M-0.89 -0.9 C35.33 0.95, 72.65 -0.79, 140.47 -1.24 M-0.77 0.77 C34.12 0.02, 68.66 -1.56, 141.48 0.38 M142.86 1.74 C140.13 15.6, 142.15 27.25, 143.09 36.04 M142.74 0.52 C141.53 10.19, 141.77 18.24, 141.53 35.15 M142.32 34.66 C99.24 33.69, 59.13 35.17, 1.13 35.28 M141.94 34.55 C108.6 34.54, 74.89 34.53, -0.54 35.52 M1.32 33.98 C0.83 28.36, 1.97 21.59, 0.99 -1.54 M0.75 34.01 C-0.05 24.59, -0.94 13.46, -0.17 0.94" stroke="#000000" stroke-width="1" fill="none"></path></g><g transform="translate(189.39308859167795 143.7070318674691) rotate(0 52 12.5)"><text x="52" y="18" font-family="Virgil, Segoe UI Emoji" font-size="20px" fill="#000000" text-anchor="middle" style="white-space: pre;" direction="ltr">Encomenda</text></g><g stroke-linecap="round" transform="translate(169.68147702781312 31.964070771315647) rotate(0 74 17.5)"><path d="M105.46 1.22 C116.44 1.98, 126.49 4.89, 133.62 7.38 C140.74 9.86, 147.04 13.35, 148.23 16.12 C149.43 18.9, 145.87 21.39, 140.8 24.02 C135.73 26.65, 127.67 30.03, 117.8 31.89 C107.94 33.74, 93.9 34.8, 81.59 35.15 C69.28 35.5, 55.07 35.3, 43.93 34 C32.79 32.7, 21.95 29.95, 14.75 27.34 C7.56 24.72, 2.13 21.27, 0.77 18.33 C-0.59 15.4, 1.54 12.3, 6.62 9.72 C11.71 7.14, 21.08 4.35, 31.26 2.86 C41.44 1.37, 54.74 0.94, 67.69 0.79 C80.64 0.65, 101.46 1.67, 108.95 2 C116.45 2.33, 113.1 2.48, 112.65 2.75 M109.06 2.74 C119.79 3.68, 129 6.24, 135.67 8.68 C142.33 11.12, 148.41 14.74, 149.04 17.38 C149.67 20.02, 145.36 22.11, 139.43 24.5 C133.5 26.88, 124.19 30.07, 113.48 31.68 C102.76 33.29, 87.66 34.07, 75.12 34.16 C62.58 34.25, 48.83 33.36, 38.24 32.22 C27.65 31.08, 18.19 29.7, 11.58 27.32 C4.96 24.95, -1.16 20.82, -1.45 17.96 C-1.74 15.1, 3.75 12.51, 9.82 10.15 C15.89 7.79, 24.49 5.49, 34.98 3.81 C45.47 2.12, 60.53 0.23, 72.76 0.06 C85 -0.11, 102.5 2.38, 108.4 2.76 C114.29 3.15, 108.84 2.3, 108.14 2.37" stroke="#000000" stroke-width="1" fill="none"></path></g><g transform="translate(186.68147702781312 36.96407077131565) rotate(0 57 12.5)"><text x="57" y="18" font-family="Virgil, Segoe UI Emoji" font-size="20px" fill="#000000" text-anchor="middle" style="white-space: pre;" direction="ltr">ID_Enc_pk</text></g><g stroke-linecap="round"><g transform="translate(251.69116392211708 65.47609209110729) rotate(0 -13.4187569241505 35.76694018197833)"><path d="M0.09 -0.57 C-4.23 11.27, -22.36 59.17, -26.93 71.09 M-1.32 1.75 C-5.16 13.7, -20.6 60.45, -24.53 72.1" stroke="#000000" stroke-width="1" fill="none"></path></g></g><g stroke-linecap="round"><g transform="translate(215.07572677071926 175.32249084338915) rotate(0 -22.42291096178269 67.49744478548102)"><path d="M0.57 0.01 C-6.94 22.49, -36.86 112.49, -44.52 135.07 M-0.6 -1.03 C-8.29 21.54, -38.37 113.13, -45.41 136.03" stroke="#000000" stroke-width="1" fill="none"></path></g></g><g stroke-linecap="round"><g transform="translate(169.306473980516 155.0124378422025) rotate(0 64.83588914554744 419.3944970917066)"><path d="M0.69 -0.35 C-24.32 54.83, -197.75 191.65, -150.12 331.63 C-102.49 471.61, 213.78 754.75, 286.47 839.53 M-0.41 -1.58 C-25.53 53.67, -199.12 192.29, -150.89 332.61 C-102.65 472.94, 216.22 755.58, 288.98 840.37" stroke="#000000" stroke-width="1" fill="none"></path></g></g><g stroke-linecap="round"><g transform="translate(310.04705507507106 153.86813450152457) rotate(0 499.41671840789905 184.49591415368218)"><path d="M-0.46 -0.64 C137.61 38.72, 661.52 173.98, 827.74 235.54 C993.96 297.11, 968.46 346.41, 996.87 368.76 M1.5 1.63 C139.51 40.68, 660.74 172.3, 827.03 233.63 C993.33 294.97, 970.68 346.78, 999.29 369.64" stroke="#000000" stroke-width="1" fill="none"></path></g></g><g stroke-linecap="round" transform="translate(468.50560980385717 1218.5530883478716) rotate(0 43.90853768741607 19.863378500418435)"><path d="M-1.65 -0.37 C31.54 -2.56, 59.09 1.2, 88.71 -0.61 M0.67 -0.85 C29.24 -0.04, 57.4 -0.12, 88.79 0.07 M86.45 0.96 C88.94 14.4, 88.59 29.71, 86.72 38.49 M87.06 -0.46 C86.97 13.54, 88.24 28.01, 88.76 39.36 M88.6 39.71 C56.07 39.63, 26.36 40.11, -1.48 39.93 M87.24 38.85 C61.46 38.4, 34.22 38.32, -0.19 38.97 M-1.21 41.13 C0.18 27.03, 1.81 11.75, 0.06 0.79 M0.18 39.39 C0.07 26.2, 0.22 13.16, -0.33 0.69" stroke="#000000" stroke-width="1" fill="none"></path></g><g transform="translate(489.4141474912733 1225.91646684829) rotate(0 23 12.5)"><text x="23" y="18" font-family="Virgil, Segoe UI Emoji" font-size="20px" fill="#000000" text-anchor="middle" style="white-space: pre;" direction="ltr">Nivel</text></g><g stroke-linecap="round" transform="translate(483.3451949814598 1304.779007334975) rotate(0 71.5 23)"><path d="M64.97 -0.85 C76.08 -1.52, 91.33 -0.28, 102.33 1.42 C113.33 3.13, 124.07 6.07, 130.96 9.37 C137.86 12.68, 142.82 17.35, 143.69 21.27 C144.56 25.2, 141.26 29.44, 136.17 32.9 C131.08 36.37, 122.97 40.03, 113.16 42.04 C103.35 44.05, 89.38 44.84, 77.32 44.99 C65.26 45.13, 51.68 44.44, 40.82 42.91 C29.96 41.38, 18.83 38.95, 12.17 35.82 C5.51 32.68, 1.78 27.79, 0.88 24.1 C-0.01 20.41, 1.86 16.88, 6.79 13.67 C11.71 10.45, 20.06 7.26, 30.42 4.82 C40.78 2.38, 61.62 -0.28, 68.95 -0.98 C76.27 -1.68, 74.31 0.03, 74.37 0.6 M87.56 -0.19 C98.62 0.17, 110.5 4, 119.47 6.59 C128.44 9.19, 137.62 11.6, 141.4 15.39 C145.17 19.17, 145.1 25.64, 142.13 29.3 C139.15 32.97, 132.02 34.86, 123.52 37.39 C115.02 39.92, 102.48 43.4, 91.15 44.5 C79.81 45.59, 66.81 44.54, 55.53 43.98 C44.25 43.41, 32.07 43.76, 23.45 41.11 C14.82 38.47, 7.4 31.85, 3.77 28.11 C0.15 24.36, -0.98 22.14, 1.69 18.65 C4.37 15.15, 11.5 10.27, 19.84 7.14 C28.18 4, 40.28 0.85, 51.74 -0.17 C63.2 -1.18, 82.52 0.94, 88.59 1.04 C94.67 1.14, 88.79 0.19, 88.18 0.43" stroke="#000000" stroke-width="1" fill="none"></path></g><g transform="translate(500.3451949814598 1315.279007334975) rotate(0 54.5 12.5)"><text x="54.5" y="18" font-family="Virgil, Segoe UI Emoji" font-size="20px" fill="#000000" text-anchor="middle" style="white-space: pre;" direction="ltr">ID_Niv_pk</text></g><g stroke-linecap="round"><g transform="translate(517.6413932897053 1258.2799450497491) rotate(0 15.95141709532271 22.63096422196213)"><path d="M-0.86 -0.69 C4.15 6.93, 25.14 36.88, 30.5 44.6 M0.89 1.56 C6.24 9.45, 27.83 38.94, 32.77 45.95" stroke="#000000" stroke-width="1" fill="none"></path></g></g><g stroke-linecap="round"><g transform="translate(519.7322437525786 1014.6921173658795) rotate(0 -1.7195638578589296 102.08262464731479)"><path d="M0.25 -0.28 C-0.19 33.85, -2.7 171.56, -3.24 205.64 M-1.07 -1.47 C-1.54 32.24, -3.35 169.46, -3.69 203.9" stroke="#000000" stroke-width="1" fill="none"></path></g></g></svg>